<svg xmlns="http://www.w3.org/2000/svg" fill="none" viewBox="0 0 100 100"><path fill="#000000" fill-rule="evenodd" d="M36.768 45.167c-2.562.64-3.842 3.202-3.522 5.443.64 4.162 7.043 5.122 8.324.32.96-3.202-1.6-6.403-4.802-5.763Zm1.92.96c-4.482 0-5.122 5.443-1.92 6.404 3.201.96 5.122-4.483 1.92-6.404Z" clip-rule="evenodd"></path><path fill="#000000" fill-rule="evenodd" d="M35.807 48.369c-.32.32-.64.96-.64 1.6.32 1.281 2.241.961 2.241 0 .64-1.92-1.6-2.24-1.6-1.6Z" clip-rule="evenodd"></path><path fill="#000000" fill-rule="evenodd" d="M60.78 38.765c-.32-.64-2.561 0-3.202.32-2.56 1.28-3.521 4.162-1.92 6.403 2.24 3.842 8.003 3.202 8.964-1.6.32-3.843-3.522-6.084-3.842-5.123Zm0 .64-.32.32c-2.882.32-4.803 2.882-3.202 5.123s5.123 2.24 6.083-.96c.32-3.523-2.24-4.163-2.56-4.483Z" clip-rule="evenodd"></path><path fill="#000000" fill-rule="evenodd" d="M59.82 43.246c.32 1.281 2.24 1.281 2.56 0a1.328 1.328 0 0 0-2.56 0Z" clip-rule="evenodd"></path><path fill="#000000" fill-rule="evenodd" d="M40.29 46.768c2.24-1.6 5.122-2.241 8.004-2.881 2.241-.64 4.802-1.28 7.043-.64.64.32.96-.641.32-.961-3.841-1.601-12.486-.32-16.008 3.842-.64.32 0 1.28.64.64Z" clip-rule="evenodd"></path><path fill="#000000" fill-rule="evenodd" d="M36.127 53.812c-.32 5.763 3.202 9.605 4.482 12.486 1.281 2.882 2.242 5.763 5.443 6.724 14.087 3.842 26.894-18.25 17.289-27.534-.32-.32-.96.32-.64.64 8.004 8.965-3.842 28.495-16.329 25.293-2.56-.64-3.201-3.522-4.482-5.763-1.28-2.561-5.123-6.723-5.123-11.846.32-.64-.64-.64-.64 0Z" clip-rule="evenodd"></path><path fill="#000000" fill-rule="evenodd" d="M55.657 47.089c4.483 2.881 5.443 16.008-.64 18.57-1.92.64-4.802 1.28-6.723 0 .64.32 1.28.64 1.92.64 8.005.64 9.605-5.763 6.404-4.803-2.241.96-3.522 4.162-7.044 1.921-.32-.32-.64-.32-.96-.64-.64-.32-1.28.32-1.601.64-.64-.64.32-2.561-.64-4.482-1.28-2.241-5.443-2.882-4.162-6.724v.32c.96 3.843 4.482-2.88 9.284-3.841 2.242-.64 3.842.32 4.162-1.281v-.32Z" clip-rule="evenodd"></path><path fill="#000000" fill-rule="evenodd" d="M41.57 52.852c-1.28 3.842 3.202 4.803 4.163 7.044.96 1.6-1.281 6.723 3.842 7.684 2.561.32 7.043-.64 8.964-3.522 3.842-6.724 1.28-23.692-11.526-16.008-2.24.96-4.802 2.881-5.442 4.802Zm1.281-.64c-2.561 3.522 2.562 4.3 4.162 6.862 1.28 2.561-1.28 6.264 2.562 6.585 1.6.32 4.162-.32 5.442-.961 5.443-2.881 5.443-26.253-10.885-13.767-.414.317-1.164 1.106-1.28 1.28Z" clip-rule="evenodd"></path><path fill="#000000" fill-rule="evenodd" d="M35.432 41.157c2.242 1.921 1.921 1.921 6.084 3.842.64.32.96-.32.64-.96-2.881-2.241-2.882-2.562-6.083-3.842-.64 0-1.28.64-.64.96Z" clip-rule="evenodd"></path><path fill="#000000" fill-rule="evenodd" d="M50.215 42.286c-2.882-7.684-10.886-2.562-13.127-2.241-1.6.32-2.241-.32-2.241.32-.32.96 1.6.96 2.561.96 3.522-.32 9.285-3.842 12.166 1.6 0 .321.64 0 .64-.64Z" clip-rule="evenodd"></path><path fill="#000000" fill-rule="evenodd" d="M67.824 21.155c3.522.961 1.92 6.404 1.6 9.925-.64 9.285-.32 20.811-2.24 29.136 0 .64.64.96.96.32 2.561-10.246 2.881-17.61 3.202-29.456 0-2.24.64-5.762-.32-8.324-.961-2.561-3.202-2.881-3.522-2.24 0 .32 0 .64.32.64Z" clip-rule="evenodd"></path><path fill="#000000" fill-rule="evenodd" d="M40.61 64.698c-11.846 5.123-16.649 8.645-29.455 12.167-.64.32-.32.96.32.96 18.57-4.482 19.53-7.364 29.455-12.166.64-.32 0-1.281-.32-.96Z" clip-rule="evenodd"></path><path fill="#000000" fill-rule="evenodd" d="M46.053 72.382c.64 9.285.64 5.123 1.6 11.206.96 5.763-.96 7.684 0 8.004.32 0 .64 0 .64-.32 1.922-7.044 1.601-4.483-1.28-18.57 0-1.28-.96-.96-.96-.32Z" clip-rule="evenodd"></path><path fill="#000000" fill-rule="evenodd" d="M65.582 57.014c4.483 16.969 6.084 17.93 8.005 26.253 1.6 7.364.64 8.005 1.6 8.005.32 0 .32-.32.32-.64 0-12.167-4.802-19.53-9.284-34.258 0-.32-.96 0-.64.64Z" clip-rule="evenodd"></path><path fill="#000000" fill-rule="evenodd" d="M11.228 90.835c17.61-8.964 21.451-4.482.64-11.846-2.88-.96-5.122-1.92-8.323-3.201 14.407-6.403 21.45-8.004 19.21-9.925-2.242-1.601-11.527-8.965-14.088-10.566C21.474 56.898 18.912 58.5 4.505 39.29c11.206 5.763 18.89 10.245 19.21 8.965.32-.64-.32-.32-6.724-3.522-14.087-7.044-14.727-8.644-15.367-7.684-.32.32-.32.64 0 .96 4.162 5.764 6.723 9.605 12.486 16.65l-8.645-1.282c-.96 0-1.28.96-.64 1.601 3.202 2.562 13.447 10.245 15.368 11.846-1.6.96-3.202 1.601-4.803 2.241-16.968 7.684-18.249 6.724-11.525 8.965 2.56.96 4.802 1.92 7.363 2.561 3.522 1.28 7.364 2.241 10.886 3.202 1.6.64 1.921-.32-4.482 2.881-7.684 3.522-7.364 3.522-7.364 4.162h.96Z" clip-rule="evenodd"></path><path fill="#000000" fill-rule="evenodd" d="M24.24 48.48c-2.242-7.363-6.404-16.007-9.605-23.371 6.083 5.443 11.526 9.925 17.929 14.407 1.92 1.28 1.28-2.881 1.6-15.047 0 .32 5.444 11.205 6.724 11.205.96 0 .32-.32 3.202-8.324 1.92-5.123 3.842-9.925 5.442-15.048 1.921 9.605 3.522 21.131 4.483 21.451.64.32 1.28-.64 10.565-6.723-1.28 9.925-2.241 8.324 5.763 4.162 18.25-9.285 18.57-8.965 18.25-9.605-.32-.64-.961 0-3.522.96-2.242.961-18.57 8.965-20.17 9.926 1.28-10.566 3.2-9.605-10.566-.64-1.6-7.684-2.561-15.689-4.482-23.052-.32-.96-1.281-.96-1.601 0-2.241 8.004-6.083 16.328-8.324 23.692-2.242-3.842-4.483-7.684-6.084-11.846-.32-.96-1.6-.64-1.6.32-.64 5.122-.32 10.885-.64 16.648-6.404-4.482-13.127-9.925-19.21-15.047-.64-.32-1.281 0-.96.64 3.2 7.684 8.644 17.609 11.205 26.253.96 0 1.92-.32 1.6-.96Z" clip-rule="evenodd"></path><path fill="#000000" fill-rule="evenodd" d="M95.417 54.193c-4.162 2.56-15.748 10.504-17.348 12.105-2.562 2.561 9.284 2.241 18.89 5.763-3.843 1.921-9.285 4.482-13.768 5.763-.64 0-.64.96-.32 1.28 1.921 1.601 3.842 1.921 8.645 3.843-11.847 4.162-12.807 2.24-8.965 6.083 2.881 2.881 3.202 2.881 3.522 2.561.64-.64-1.28-1.6-3.842-4.482.96-.32 12.166-3.202 12.166-4.162 0-.64-.64-.64-1.6-.96-.32 0-6.084-2.562-6.404-2.562-2.241-.96-2.561.64 13.127-6.724.64-.32.64-1.28 0-1.6-8.645-3.522-19.21-4.163-18.57-4.803 15.688-12.166 18.57-11.846 17.93-13.447-.32-.96-.961-.32-4.483 0-19.53 1.921-16.328 1.601-16.648 1.601 6.723-7.684 5.122-6.403 1.28-6.724-1.6 0-3.522-.32-5.122-.32 15.047-25.933 16.008-25.933 15.047-26.253-.64-.32-.64 0-3.201 4.482-8.965 14.088-1.281.96-13.447 22.091-.32.32 0 .961.64.961 2.561.32 5.443.64 7.364.64-6.083 7.684-8.965 7.044 6.403 5.763a233.24 233.24 0 0 0 8.704-.9Z" clip-rule="evenodd"></path><path fill="#000000" fill-rule="evenodd" d="M44.772 49.97c.32 1.281.32 1.28 1.28 1.921.32.64 1.281 0 .96-.64-.32-1.6-.32-1.6-1.28-1.921-.32-.64-1.28 0-.96.64Z" clip-rule="evenodd"></path><path fill="#000000" fill-rule="evenodd" d="M49.895 47.089c0 .96-.32.96.64 2.561.32.64.96.32.96-.32 0-1.28.32-1.28-.64-2.561 0-.64-.96-.32-.96.32Z" clip-rule="evenodd"></path><path fill="#000000" fill-rule="evenodd" d="M49.895 63.737c-.64.96-.64.96 0 2.241 0 .64.96.64.96 0 .64-1.28.64-.96 0-2.24 0-.321-.96-.641-.96 0Z" clip-rule="evenodd"></path><path fill="#000000" fill-rule="evenodd" d="M53.736 62.777c-.32.96-.32 1.28.64 2.561.32.64.961.32.961-.32 0-1.28.32-1.28-.64-2.561-.32-.32-1.28-.32-.96.32Z" clip-rule="evenodd"></path></svg>