<svg xmlns="http://www.w3.org/2000/svg" fill="none" viewBox="0 0 100 100"><path fill="#000000" fill-rule="evenodd" d="M63.065 30.664c-6.109 2.251-6.43 12.22-2.25 17.042 3.215 3.859 8.36 2.573 10.289-1.607 3.215-6.11.321-17.364-6.752-16.078-.644 0-.322.965.321.965 5.466-.965 7.717 8.039 5.466 13.505-1.607 3.858-5.466 5.145-8.038 2.25-3.216-3.858-3.859-12.861 1.286-14.79.643-.643 0-1.287-.322-1.287Z" clip-rule="evenodd"></path><path fill="#000000" fill-rule="evenodd" d="M59.85 36.131c-3.858 3.859 0 11.898 3.537 8.682 1.93-1.608 1.608-5.466.643-7.395-1.608-3.216-4.18-2.251-4.18-1.287Z" clip-rule="evenodd"></path><path fill="#000000" fill-rule="evenodd" d="M82.68 31.308c-4.18-2.894-6.753 9.968-2.894 13.505 4.823 4.501 8.038-8.36 3.858-12.54-.321-.322-.964.32-.643.642 1.93 1.93 1.608 6.431.643 8.682-1.93 5.788-5.466-.322-3.858-7.074.321-1.286.964-3.215 2.25-2.572.644.321 1.287-.322.644-.643Z" clip-rule="evenodd"></path><path fill="#000000" fill-rule="evenodd" d="M80.429 42.24c2.25-.964 1.929-9.002-.322-8.68-2.25 0-2.894 10.289.322 8.68Z" clip-rule="evenodd"></path><path fill="#000000" d="M87.252 51.68c.322 0 .322-.32.322-.642-.972-3.4-2.494-5.333-4.566-6.906l-1.188.879c5.559 5.904 4.546 6.965 5.432 6.67Z"></path><path fill="#000000" fill-rule="evenodd" d="M88.789 51.243c-8.682-2.572-12.862 6.11-5.466 8.36 2.572.643 5.788-.643 7.395-2.572 2.251-2.894-.643-5.788-1.286-5.145-.322.322 0 .643 0 .643 3.215 2.894-2.894 6.431-5.788 5.467-4.823-1.608-1.93-7.396 4.823-5.788.643 0 .965-.965.322-.965Z" clip-rule="evenodd"></path><path fill="#000000" fill-rule="evenodd" d="M87.181 58.319c4.18 7.395.643 18.006-12.54 21.543-13.505 3.859-26.045 0-25.402-14.148.643-12.54 9.646-15.112 6.752-16.399-13.826-5.787-9.003-34.726 16.078-29.903 6.43 1.286 13.183 5.466 10.932 11.254-.321.643.643.965.965.321 5.466-12.218-25.402-20.578-34.084-4.501-4.502 8.36-3.537 19.614 4.502 24.116-13.827 15.112-7.074 38.906 20.9 30.868C89.11 77.61 92.97 66.036 88.146 57.997c-.643-.643-1.286 0-.965.322Z" clip-rule="evenodd"></path><path fill="#000000" fill-rule="evenodd" d="M62.422 68.285c1.287 0 27.01 0 27.01-1.607 0-.643-.643-.322-3.215-.322-14.148-.321-15.113.643-23.795.965-.643 0-.643.964 0 .964Z" clip-rule="evenodd"></path><path fill="#000000" fill-rule="evenodd" d="M59.837 81.053c-10.848-1.219-29.779-1.277-38.139-9.637C4.978 54.696 7.76 24.234 25.445 10.73c16.72-12.861 37.299-10.932 49.839 0 9.968 9.004 8.36 11.576 13.826 11.576.644 0 .644-.965 0-.965-4.823 0-3.215-2.572-13.183-11.575C63.065-1.811 41.843-4.383 24.48 9.122 5.83 23.27 2.294 55.746 19.978 72.787c9.004 8.682 29.69 8.588 39.859 8.588.964.643.643-.322 0-.322Z" clip-rule="evenodd"></path><path fill="#000000" fill-rule="evenodd" d="M84.53 26.54c2.894-.643 4.18-1.929 6.11-4.18.321-.321-.322-1.286-.644-.643-.964.643-2.25 1.608-3.537 2.251-.643.322-1.607 1.286-2.25 1.608-.644.321-.322 1.286.321.965Z" clip-rule="evenodd"></path><path fill="#000000" fill-rule="evenodd" d="M63.709 85.649c-3.216.965-22.187.643-28.296.643-3.537 0-10.29 0-13.184-2.25 5.788-10.933 2.894-2.573 37.3-1.93.642 0 .642-.965 0-.965-30.547-1.286-33.12-9.646-38.264.965-.965 1.608-1.93 3.215 3.215 4.823 4.823 1.608 23.473 1.286 29.26.643 2.251-.321 12.22.322 10.933-1.93-.643-1.607-1.497-2.572-3.104-4.18-.322-.32-.965.322-.644.644 1.608 1.286 2.14 1.93 2.784 3.537Z" clip-rule="evenodd"></path><path fill="#000000" fill-rule="evenodd" d="M25.123 86.613c-2.572 3.216-4.502 5.788-5.788 11.254-.321.643.643.965.965.322 1.93-4.823 6.43-11.254 5.466-11.576 0-.321-.321-.321-.643 0Z" clip-rule="evenodd"></path><path fill="#000000" fill-rule="evenodd" d="M61.458 87.258c6.43 11.575 5.787 10.61 6.109 10.932.321.643 1.286.322.965-.321-1.608-5.467-3.537-8.039-6.11-11.254-.321-.322-1.286 0-.964.643Z" clip-rule="evenodd"></path></svg>