<svg xmlns="http://www.w3.org/2000/svg" fill="none" viewBox="0 0 48 48"><path stroke="#000000" stroke-linecap="round" stroke-linejoin="round" d="m.875 38.148 2.086-2.407h7.766l1.413-.577 2.31 2.054-2.76.93H.875Z"></path><path stroke="#000000" stroke-linecap="round" stroke-linejoin="round" d="m2.993 35.709 1.733-12.292h7.285l1.348 3.948-1.123 7.766"></path><path stroke="#000000" stroke-linecap="round" stroke-linejoin="round" d="m12.075 23.481-1.444 12.196 1.091 2.375"></path><path stroke="#000000" stroke-linecap="round" stroke-linejoin="round" d="M3.699 30.381.586 20.145v-3.627l1.283-1.316h15.085l3.915 17.138-1.22 1.124-6.964.417"></path><path stroke="#000000" stroke-linecap="round" stroke-linejoin="round" d="m.746 16.581 14.763.385 3.884 16.4"></path><path stroke="#000000" stroke-linecap="round" stroke-linejoin="round" d="M.682 20.111h13.062l3.081 12.164h-3.744"></path><path stroke="#000000" stroke-linecap="round" stroke-linejoin="round" d="m16.697 32.34 2.76 1.123"></path><path stroke="#000000" stroke-linecap="round" stroke-linejoin="round" d="m13.84 20.08 1.798-3.114 1.22-1.508"></path><path stroke="#000000" stroke-linecap="round" stroke-linejoin="round" d="M.586 36.24h1.758"></path><path stroke="#000000" stroke-linecap="round" stroke-linejoin="round" d="M21.016 34.824h2.086l2.857.975v.94h-9.622"></path><path stroke="#000000" stroke-linecap="round" stroke-linejoin="round" d="M23.169 34.925v1.68"></path><path stroke="#000000" stroke-linecap="round" stroke-linejoin="round" d="M43.101 25.647c2.42 3.657 2.779 8.516 2.656 10.488"></path><path stroke="#000000" stroke-linecap="round" stroke-linejoin="round" d="M43.639 26.656c.202 3.126-.908 7.764-2.454 10.016-1.344-8.067-4.706-14.42-8.974-14.453-4.27-.034-5.11 8.269-2.79 14.453 4.813-2.527 9.22-7.394 10.823-9.512"></path><path stroke="#000000" stroke-linecap="round" stroke-linejoin="round" d="M47.202 14.992c-.706-3.462-5.367-7.42-11.899-6.487-2.753.393-5.445 1.008-7.092 4.336-1.647 3.328-1.883 8.605 1.647 12.638 3.53 4.034 10.084 2.353 13.176 0 3.092-2.352 4.874-7.025 4.168-10.487Z"></path><path stroke="#000000" stroke-linecap="round" stroke-linejoin="round" d="M26.33 17.397c1.702.412 3.431.696 4.515-.388"></path><path stroke="#000000" stroke-linecap="round" stroke-linejoin="round" d="M34.535 16.656c0 .703.8.849 1.935.615.909-.188 3.234-.917 4.283-1.258.439 1.14.831 3.54-1.11 4.007-2.425.585-4.308.264-4.618-2.398"></path><path stroke="#000000" stroke-linecap="round" stroke-linejoin="round" d="M30.243 18.053c.49 1.239-.052 3.045-2.813 2.348"></path><path stroke="#000000" stroke-linecap="round" stroke-linejoin="round" d="M36.941 18.436v.345"></path><path stroke="#000000" stroke-linecap="round" stroke-linejoin="round" d="M33.263 16.64c-.114.796.09 1.25.204 1.5"></path><path stroke="#000000" stroke-linecap="round" stroke-linejoin="round" d="M32.035 17.169c.023.267-.05.7-.089.884"></path><path stroke="#000000" stroke-linecap="round" stroke-linejoin="round" d="M31.78 24.185c.81-.517 1.292-.138 1.568.155"></path><path stroke="#000000" stroke-linecap="round" stroke-linejoin="round" d="M32.564 36.276h7.357"></path><path stroke="#000000" stroke-linecap="round" stroke-linejoin="round" d="M26.038 36.276h1.943"></path><path stroke="#000000" stroke-linecap="round" stroke-linejoin="round" d="M.746 39.634h46.61"></path><path stroke="#000000" stroke-linecap="round" stroke-linejoin="round" d="M42.798 36.364h4.616"></path><path stroke="#000000" stroke-linecap="round" stroke-linejoin="round" d="M28.357 18.968v.178"></path></svg>