<svg xmlns="http://www.w3.org/2000/svg" fill="none" viewBox="0 0 48 48"><path stroke="#000000" stroke-linecap="round" stroke-linejoin="round" d="M26.169 33.203c-.996.884-3.498 2.728-5.542 3.036-2.554.386-4.336-.482-7.131-3.47-3.83-4.093-2.91-6.465-2.91-7.81 0-1.98.385-5.359 0-9.713 0-1.478.623-2.715.934-3.149"></path><path stroke="#000000" stroke-linecap="round" stroke-linejoin="round" d="M15.973 25.11c-.76.197-1.294 1.322-.984 2.053"></path><path stroke="#000000" stroke-linecap="round" stroke-linejoin="round" d="M10.508 21.253c-1.35-3.422-1.397-7.084-.916-9.83.386-2.198 1.575-4.032 2.12-4.675.707-1.124 2.66-3.46 4.82-3.806 1.686-1.398 5.01-2.699 9.492-.916C30.506 3.81 32 6.604 33.204 7.81c1.205 1.204 1.301 5.638 1.012 7.854-.231 1.773-.77 3.373-1.012 3.951"></path><path stroke="#000000" stroke-linecap="round" stroke-linejoin="round" d="M11.954 12c1.349-.346 2.746-2.103 3.276-2.939.932.659 3.46 1.966 6.12 1.928 3.325-.048 4.144-1.012 5.06 0 .915 1.012 2.265 3.132 1.542 5.638 1.465 1.619 1.702 4.85 1.638 6.264"></path><path stroke="#000000" stroke-linecap="round" stroke-linejoin="round" d="M30.747 25.59c.192-1.446 1.06-3.277 1.83-3.807"></path><path stroke="#000000" stroke-linecap="round" stroke-linejoin="round" d="M29.012 34.119c-1.06-.771-1.06-.868-.916-1.494.116-.501 1.14-3.582 1.639-5.06.401.53 1.61 1.022 3.228-1.253 2.024-2.843 2.892-7.276.53-7.083"></path><path stroke="#000000" stroke-linecap="round" stroke-linejoin="round" d="M15.225 9.036c-.987-.74-.768-2.385 0-3.18"></path><path stroke="#000000" stroke-linecap="round" stroke-linejoin="round" d="M12.132 21.828c.421-1.113 1.023-1.293 1.61-1.233.586.06 1.549.737 2.075 1.504"></path><path stroke="#000000" stroke-linecap="round" stroke-linejoin="round" d="M20.286 22.251c.52-.336.487-1.898 2.2-1.965 1.37-.053 2.485.874 2.872 1.344"></path><path stroke="#000000" stroke-linecap="round" stroke-linejoin="round" d="M12.132 18.605c1.31 0 2.58-.605 3.272-1.275"></path><path stroke="#000000" stroke-linecap="round" stroke-linejoin="round" d="M20.812 17.446c.854.785 2.703.872 4.02 1.16"></path><path fill="#000000" d="M13.635 22.414c-.998-.056-1.016-1.145-.517-1.589.498-.332 1.034 0 1.292.167.259.166.222 1.477-.775 1.422Z"></path><path fill="#000000" d="M22.348 22.413c-1.135-.062-1.156-1.295-.589-1.796.568-.376 1.178 0 1.472.188.295.188.253 1.671-.883 1.608Z"></path><path stroke="#000000" stroke-linecap="round" stroke-linejoin="round" d="M16.339 27.05c.549.31.363.563 1.336.645 1.259.105 1.3-.89 2.237-.762"></path><path stroke="#000000" stroke-linecap="round" stroke-linejoin="round" d="M20.061 24.903c1.026.55 1.503 1.575 1.289 2.267"></path><path stroke="#000000" stroke-linecap="round" stroke-linejoin="round" d="M23.055 27.315c1.252.13 2.173 1.086 2.476 1.548"></path><path stroke="#000000" stroke-linecap="round" stroke-linejoin="round" d="M14.533 26.967c-.641.067-1.28 1.009-1.52 1.47"></path><path stroke="#000000" stroke-linecap="round" stroke-linejoin="round" d="M14.364 29.91c1.845.906 2.55.839 4.194.805 1.644-.034 2.953-.235 4.497-1.007"></path><path stroke="#000000" stroke-linecap="round" stroke-linejoin="round" d="M1.75 46.84c1.237-4.454 2.722-7.382 5.155-8.908 1.947-1.22 5.705-3.23 7.341-4.083"></path><path stroke="#000000" stroke-linecap="round" stroke-linejoin="round" d="M28.681 31.952c2.763 2.145 7.3 3.918 9.28 4.495 1.98.578 6.64 4.95 8.29 10.311"></path><path stroke="#000000" stroke-linecap="round" stroke-linejoin="round" d="M14.081 36.117c.165 2.599 3.093 6.187 8.702 5.445 5.61-.743 7.012-3.382 7.424-6.517"></path><path stroke="#000000" stroke-linecap="round" stroke-linejoin="round" d="M25.136 23.493c.396-.246.752-.534 1.476-.602"></path><path stroke="#000000" stroke-linecap="round" stroke-linejoin="round" d="M17.088 17.908c-.083.365-.25.544-.324.589"></path><path stroke="#000000" stroke-linecap="round" stroke-linejoin="round" d="M18.632 18.026c.025.093.109.318.25.47"></path><path stroke="#000000" stroke-linecap="round" stroke-linejoin="round" d="M15.932 31.822c.726.633 1.203 1.044 2.932.978 2.018-.078 3.02-1.024 3.311-1.293"></path></svg>