<svg xmlns="http://www.w3.org/2000/svg" fill="none" viewBox="0 0 100 100"><path fill="#000000" fill-rule="evenodd" d="M49.451 26.364c0 2.876.32 5.113-1.278 6.39-.64.32 0 1.28.32.96 1.917-.64 2.556-2.557 2.556-4.474 0-.959-.32-1.917-.64-2.876 0-.64-.958-.64-.958 0Z" clip-rule="evenodd"></path><path fill="#000000" fill-rule="evenodd" d="M53.605 32.435c-.64-.32-2.557-2.556-2.876-3.515 0-.639-.959-.32-.959 0 0 2.237.959 3.835 3.515 4.474.64 0 .959-.959.32-.959Z" clip-rule="evenodd"></path><path fill="#000000" fill-rule="evenodd" d="M52.966 27.323c3.834 7.35 10.864 1.278 14.38 4.154.32.32.958-.32.639-.639-2.876-2.876-9.267-.32-12.143-1.917-.64-.32-1.279-.959-1.918-1.917-.639-.64-1.278 0-.958.32Z" clip-rule="evenodd"></path><path fill="#000000" fill-rule="evenodd" d="M46.894 28.28c-1.917 2.877-7.35 3.197-9.586 5.114-.64.639-1.918 1.917-1.279 2.237.64.32.32-.64 1.918-1.279 1.917-.958 8.308-.958 9.906-5.751.32-.32-.64-.64-.959-.32Z" clip-rule="evenodd"></path><path fill="#000000" fill-rule="evenodd" d="M49.131 36.91c-.639 4.793 0 4.793-.32 6.39-.319.64.64.959.96.32 1.278-2.556 1.278-4.154.639-6.71-.32-.96-1.279-.64-1.279 0Z" clip-rule="evenodd"></path><path fill="#000000" fill-rule="evenodd" d="M48.812 49.051c1.598.64 3.195 0 4.154-.958.32.639.639.959.959.639.639-.32.32-.64-.32-1.917-.32-.32-.64-.32-.959 0-.958.958-2.876 1.278-4.154.32-.32-.32-.958-.32-1.278 0-.64-.96 0-1.599-.64-1.599-.958-.32-.958 1.598-.638 2.237.958.96 2.237 1.918 2.876 1.278Z" clip-rule="evenodd"></path><path fill="#000000" fill-rule="evenodd" d="M55.522 44.579c.32.639.32 1.597.32 2.237 0 .958 0 1.597-.959 1.917-.639 0-.639.959 0 .959 2.876 0 3.515-3.516 1.279-5.433 0-.639-.96 0-.64.32Z" clip-rule="evenodd"></path><path fill="#000000" fill-rule="evenodd" d="M59.677 57.36c-1.598-.639-3.196-1.597-4.794-1.917-.958 0-1.278.32-1.917.32-.32 0-.959-.64-1.917 0-.32 0 .639-.32-2.557 1.278-1.278.639-1.597 4.154 4.154 3.835 2.557 0 5.752 0 7.35-1.279.959-.639.959-1.278.959-1.917-.32 0-.64 0-1.278-.32Zm-5.113-.32c-.64.32-.959.64-1.918.64-1.278 0 .32-.64-3.195.959 0 .639 1.598.639 5.432.639.959 0 4.474.32 4.794-.959-1.598-.32-4.155-1.598-5.113-1.278Z" clip-rule="evenodd"></path><path fill="#000000" fill-rule="evenodd" d="M57.44 36.909c.958-.64 1.598-.959 2.237-1.278 3.195.958 7.35 0 7.03-.959-.32-.64-.64 0-3.196 0-5.432-.32-2.876-2.237-6.71 1.598-.32.32.32.958.639.639Z" clip-rule="evenodd"></path><path fill="#000000" fill-rule="evenodd" d="M61.913 35.631c-.319.64-.319 1.278.32 1.917.959.96 2.557 0 2.557-1.278 0-1.598-2.237-1.917-2.877-.639Z" clip-rule="evenodd"></path><path fill="#000000" fill-rule="evenodd" d="M59.357 37.549c2.556 2.556 6.71.959 7.03-2.237.32-.64-.639-.959-.959-.32-.32.64-1.278 1.598-2.556 1.918-2.237.639-3.515-.64-3.835 0 0 0 0 .32.32.639Z" clip-rule="evenodd"></path><path fill="#000000" fill-rule="evenodd" d="M66.707 38.188c.32-.64-.64-.96-.959-.64-.64.96-1.917 1.598-3.196 1.598-3.195.32-3.834-1.598-4.154-.958-1.278 1.597 5.752 5.752 8.309 0Z" clip-rule="evenodd"></path><path fill="#000000" fill-rule="evenodd" d="M66.945 64.63c-5.42 7.775-12.487 12.252-19.556 5.89-2.827-2.591-4.712-6.361-6.597-9.66 1.65.471 2.592-2.12 3.063-3.063 1.885-2.827 4.241-5.183 7.54-6.126 0 .472.235 1.178.235 1.65-3.298 1.178-7.304 5.419-6.833 8.246.472 2.592 3.77 4.477 6.126 5.184 3.063.942 1.414-3.3 3.063-2.828.707.236 1.178 1.178 1.65 1.885 1.413 2.356 5.89-.236 6.832-2.592.943-2.591-.235-6.597-2.592-8.01-1.178-.943-2.827-1.178-4.24-1.65-2.357-.942-2.121-2.12-.943-2.356 1.65-.235 6.597 1.65 8.953 5.655 1.178 2.12 1.178 5.419 3.299 7.775Z" clip-rule="evenodd"></path><path fill="#000000" fill-rule="evenodd" d="M67.18 64.159c-2.827-3.063-1.413-7.304-5.89-11.074-1.649-1.414-4.005-2.592-5.419-2.827-2.356-.472-3.77 1.178-2.12 2.591 2.12 1.885 6.126.707 7.775 5.655.942 2.827.236 4.477-1.414 5.655-.706.706-2.356 1.413-3.298 1.178-.943-.236-.943-1.414-1.65-2.12-.706-.708-1.649-.943-2.356-.236-.942.706-.706 2.356-.942 2.591-.471.236-5.655-1.885-6.126-4.476-.471-2.12 3.063-6.126 6.126-7.304.707-.236.707-.707.471-2.592 0-.471-.707-.942-1.178-.707-3.298.943-6.126 3.063-8.01 6.597-.472.707-1.179 3.063-2.121 2.828-.707-.236-1.414.47-.943 1.178 3.535 5.419 4.477 9.188 10.132 12.016 6.833 3.298 12.958-1.885 17.2-8.247 0-.235 0-.47-.236-.706Zm-.706.47c-3.299-3.769-1.414-9.66-9.189-12.487-.707-.235-2.12-.942-2.827-.47.471.706 2.591 1.177 4.476 1.884 4.477 1.885 6.597 8.482 2.356 12.016-1.178.943-3.063 2.12-4.712 1.65-1.65-.472-1.885-1.65-2.356-2.357-.707-1.178 0 1.414-1.414 2.357-2.12 1.413-14.843-4.241-5.183-12.723-3.534 2.827-3.77 6.125-5.655 6.832l2.828 4.948c5.419 8.482 13.43 9.66 21.676-1.65Z" clip-rule="evenodd"></path><path fill="#000000" fill-rule="evenodd" d="M39.545 38.507c.958-.64 2.236-1.279 3.195-1.598 2.237-.959 1.278-.64 2.876.32.64.319 1.598.958 1.917.319.32-.64-.32-.32-1.278-1.278-.959-1.279-.959-1.918-1.917-1.918-2.557.32-3.835 1.279-5.752 3.196 0 .639.639 1.278.959.959Z" clip-rule="evenodd"></path><path fill="#000000" fill-rule="evenodd" d="M45.616 37.548c1.278-1.598-1.917-3.196-2.556-.959-.32 1.598 1.597 1.918 2.556.959Z" clip-rule="evenodd"></path><path fill="#000000" fill-rule="evenodd" d="M45.936 38.508c.639-.32 0-1.279-.32-.96-.639.32-1.917.32-2.556.32-2.556-.32-2.237-1.278-2.876-.639-1.278.64 1.917 4.154 5.752 1.279Z" clip-rule="evenodd"></path><path fill="#000000" fill-rule="evenodd" d="M43.699 40.743c-.959.64-1.278.64-1.278.959.32.639 1.917 0 2.556 0 2.237-.64 3.196-2.876 2.556-3.196-.319-.32-.319 0-3.834 2.237Z" clip-rule="evenodd"></path><path fill="#000000" fill-rule="evenodd" d="M76.293 35.95c0-4.473-.958-8.308-5.113-10.225 1.279-3.835.32-9.906-2.237-12.782-3.515-4.155-7.669-2.876-12.462-.64-4.793 2.237-6.072 2.877-9.906 1.598-2.876-.958-5.113-2.237-7.99-.639-3.834 2.237-4.153 7.99-4.792 12.143-1.918 11.824.32 13.102 1.278 17.576 1.278 6.71-.64 7.03 5.752 17.895.32.639 1.278 0 .958-.64-6.071-10.545-4.154-10.864-5.112-17.575-.64-4.793-2.876-5.752-.959-16.936.64-3.515.959-9.267 3.834-10.865 2.237-1.278 4.474-.32 6.711.639 8.948 3.196 15.658-7.989 21.73-1.598 2.556 2.557 3.195 8.948 1.917 11.824-.959 2.556 7.03-1.278 4.793 15.019 0 .959.96.958 1.279.32.958-3.196 2.876-8.948 4.793-9.587.64-.32.959.639 1.278 1.278.959 3.195-1.917 10.865-4.793 13.102-1.278.958-1.917.32-1.917.958 0 1.278 4.473.64 7.35-7.669.638-1.917 1.278-4.793.638-6.71-.32-1.279-1.278-2.557-2.876-1.918-2.237.64-3.515 3.515-4.154 5.432Z" clip-rule="evenodd"></path><path fill="#000000" fill-rule="evenodd" d="M67.346 65.03c8.947-10.225 10.226-10.225 8.947-18.214 0-.32-.32-.32-.639-.32-1.278.32 1.279 4.155-2.236 8.628-1.598 1.918-2.237 2.237-4.155 5.113-.958 1.278-1.598 2.556-2.556 4.154-.32.64.32 1.278.639.64Z" clip-rule="evenodd"></path><path fill="#000000" fill-rule="evenodd" d="m71.5 43.3-1.917 1.917c-.96.959-1.918 2.237-2.557 2.876-.639.32 0 1.278.64.64 2.875-1.28 3.834-2.877 4.473-5.114.32-.639-.32-.958-.64-.32Z" clip-rule="evenodd"></path><path fill="#000000" fill-rule="evenodd" d="M42.101 24.127c1.918-.32 3.196-.958 5.113-.958 1.598 0 3.196.32 4.793.32 2.237-.32 4.794-.96 7.03 0 .64.319.96-.64.32-.96-2.556-1.278-4.793-.958-7.67-.639-1.597 0-3.195-.32-4.792 0-1.918.32-3.516.959-5.433 1.598-.32-.32 0 .64.64.64Z" clip-rule="evenodd"></path><path fill="#000000" fill-rule="evenodd" d="M45.616 25.725c3.196.32 2.557 0 4.474 0 .64 0 .64-.959 0-.959-2.556-.639-3.195-.319-4.793 0-.64 0-.32.96.32.96Z" clip-rule="evenodd"></path><path fill="#000000" fill-rule="evenodd" d="M50.729 63.433c1.598 1.278 3.515 1.598 5.113.639.639-.32 1.598-.959 2.237-.32.32.32.958-.32.639-.639-1.598-1.917-4.154.64-7.67-.639-.319-.32-.958.64-.319.959Z" clip-rule="evenodd"></path><path fill="#000000" fill-rule="evenodd" d="M5.992 87.718c.958-2.237 9.586 1.279 12.143-3.195.639-1.278.32-2.557-.959-3.515-2.237-1.278-8.947-.959-10.226-.959-1.278.32-2.876.959-3.834 1.598-4.794 3.195-2.876 7.989-1.918 13.101 0 .32.32.32.64.32.958 0-.64-3.834-.32-7.35 0-2.556.959-3.834 2.876-4.793 1.917-.959 2.556-1.278 3.515-1.278 2.556 0 10.226-.32 8.947 1.917-.958 1.917-5.432 1.918-7.669 1.918-1.917 0-3.515 0-4.154 1.597 0 .959.64 1.279.959.64Z" clip-rule="evenodd"></path><path fill="#000000" fill-rule="evenodd" d="M6.63 81.647c6.711-10.545 22.37-.64 18.854 1.278-2.556 1.278-5.295-.959-8.171-1.278-.64 0-.64.959 0 .959 2.876.32 5.615 3.195 8.81 1.597 7.03-3.195-12.143-16.617-20.45-3.195-.32.639.638 1.278.958.639Z" clip-rule="evenodd"></path><path fill="#000000" fill-rule="evenodd" d="M10.785 80.688c0 .64.958.32.958-.32 0-.958.64-2.236 1.279-3.195.958-2.556-.959-3.195-2.557-1.278-1.278 1.598-1.278 3.196-.639 4.474 0 .958.64.959.959.32Zm.639-4.154c0-.32 0-.32 0 0 0-.32-.32-.32 0 0Z" clip-rule="evenodd"></path><path fill="#000000" fill-rule="evenodd" d="M10.465 78.131c1.278-1.917 2.557-4.154 4.474-5.113 3.835-1.917 11.184.64 14.38 3.196.959.959 6.071 2.237 4.474 3.515-.64.64-1.918.64-2.876.64-2.237 0-3.516-1.28-3.835-.32 0 .32 0 .639.32.639 1.25.714 2.203.876 3.195.958 3.835.32 6.391-2.237 3.515-4.474-1.278-.958-2.876-1.278-3.835-2.236-2.236-1.598-5.751-3.515-9.267-4.155-7.35-1.278-9.267 2.877-11.503 6.711-.32.64.639 1.278.958.64Z" clip-rule="evenodd"></path><path fill="#000000" fill-rule="evenodd" d="M16.537 72.38c5.113-1.918 9.267-1.598 14.38.32.64.319 4.474.958 3.835 1.597-1.279 1.278-4.1.56-5.059.56-.639 0-.639.96 0 .96 1.918.319 2.502 1.037 4.74.397 1.277-.32 2.556-1.278 1.916-2.556-.639-1.917-3.515-1.917-4.793-2.237-6.071-2.556-9.906-2.237-15.338.32-.64 0-.32.958.32.639Z" clip-rule="evenodd"></path><path fill="#000000" fill-rule="evenodd" d="M23.887 87.399c-.64 1.598-2.557 5.752-4.474 7.67-.64.319 0 1.277.64.638 3.195-2.236 4.473-4.793 4.792-8.308.32-.64-.639-.64-.958 0Z" clip-rule="evenodd"></path><path fill="#000000" fill-rule="evenodd" d="M23.887 83.883c-.32 1.918 0 4.155 1.278 5.752 1.917 2.876 5.113 1.918 6.072 5.113.639 2.237 0 3.196.958 3.196.32 0 .64-.32.64-.32.958-10.225-7.03-4.154-7.35-13.74-.64-.64-1.598-.64-1.598 0Z" clip-rule="evenodd"></path><path fill="#000000" fill-rule="evenodd" d="M43.921 77.758c-4.154 1.598-7.67 0-7.989 1.278 0 .32 0 .64.32.64 1.278.319 2.876.319 4.154.638 6.71.32 8.308-4.793-3.196-4.793-.639 0-.639.959 0 .959 4.474.32 3.835 0 6.711 1.278Z" clip-rule="evenodd"></path><path fill="#000000" fill-rule="evenodd" d="M35.71 73.657c2.237 0 9.267 1.279 10.545 3.515.64.96-.32 2.237-.639 3.516-.958 3.195-2.236 7.03-4.793 9.267-2.237 2.236-5.432 2.237-6.072 6.071 0 .64.96.64.96 0 .638-3.834 5.112-2.237 8.947-8.628 1.597-2.556 3.195-7.67 3.195-8.628.64-4.793-7.67-5.752-12.462-5.752-.32-.32-.32.64.32.64Z" clip-rule="evenodd"></path><path fill="#000000" fill-rule="evenodd" d="M34.112 35.95c-1.597-2.236-1.597-4.473-1.917-7.349-.32-1.598-.959-2.876-.959-4.474 0-1.597.96-3.515 1.598-5.112 2.237-8.628 2.876-13.102 20.132-15.978 12.463-1.917 13.74-.959 21.41 5.752 2.237 1.917 4.793 3.515 6.072 6.071 2.556 4.794 1.917 9.907 2.236 15.339 0 1.598.64 3.195.64 4.474 0 1.597-.32 3.195 0 4.793.32 2.237 1.917 4.474 1.917 6.71 0 1.918-1.598 3.515-1.598 5.433-.32 1.598.64 2.556.959 4.154 0 .64.959.64.959 0 0-1.278-.96-2.556-.64-3.834.32-1.918 1.918-3.196 1.918-5.433 0-2.556-1.918-4.474-1.918-6.71 0-1.598.32-3.196 0-4.794 0-1.597-.639-3.195-.639-4.793-.32-5.433.32-10.865-2.237-15.978-1.597-2.876-3.834-4.474-6.39-6.71-8.31-7.03-9.907-8.309-23.009-6.392-5.752.96-10.864 1.918-15.338 5.433-4.474 3.515-4.793 7.03-5.752 12.143-.32 1.917-1.796 4.13-1.476 6.048 0 1.598 1.156 3.062 1.156 4.66.64 2.876-.32 4.383 1.598 6.939.32.64 1.917-.072 1.278-.391Z" clip-rule="evenodd"></path><path fill="#000000" fill-rule="evenodd" d="M81.087 48.094c.639 2.557-2.237 5.752 1.917 8.948.32.32 1.278-.32.639-.64-2.237-2.875-.64-4.153-.959-6.71-.639-3.195-1.917-2.237-1.597-1.598Z" clip-rule="evenodd"></path><path fill="#000000" fill-rule="evenodd" d="M77.891 49.692c.32 1.917-.639 5.752 2.557 7.989.32.32.958-.32.639-.64-.64-.958-.959-1.916-1.279-3.195 0-.639-.639-5.432-1.597-5.112-.32.639-.32.639-.32.958Z" clip-rule="evenodd"></path><path fill="#000000" fill-rule="evenodd" d="M75.974 54.485c-.32 1.918 0 3.196 1.598 4.474.32.64 1.278 0 .639-.64-.32-.638-.32-1.597-.64-2.556-.319-.639-.638-1.278-.638-1.597 0-.64-.959-.32-.959.32Z" clip-rule="evenodd"></path><path fill="#000000" fill-rule="evenodd" d="M35.803 43.097c.64 4.154 1.598 5.432 3.835 8.948.32.639 1.278 0 .959-.32-4.474-9.906-3.196-7.03-3.835-8.628-.32-.959-.959-.639-.959 0Z" clip-rule="evenodd"></path><path fill="#000000" fill-rule="evenodd" d="M74.376 55.444c.64 4.473-1.917 7.35-4.793 10.865-5.752 6.39-5.752 7.669-8.309 10.864-4.473 5.113-8.308 4.794-11.184 1.598-4.154-4.474-1.917-7.989-3.196-8.308-1.278 0-.639 7.03 3.516 10.545 4.154 3.196 8.628 1.278 12.143-2.556 1.917-2.237 3.515-4.794 5.112-6.71 3.835-5.114 8.948-9.268 7.67-15.979 0-1.278-.959-.958-.959-.32Z" clip-rule="evenodd"></path><path fill="#000000" fill-rule="evenodd" d="M83.324 95.068c.639-4.154-1.598-7.03-1.918-11.184-.32-4.793 4.154-6.71-1.598-23.328 4.794 2.557 9.587 3.835 14.7 4.474.639 0 .639-.959 0-.959-6.391-.958-11.184-2.875-15.978-5.751-.639-.32-1.278.32-1.278.958 6.391 18.215 1.917 19.813 2.237 24.925.32 3.835 2.876 7.35 2.237 10.865.639.32 1.598.64 1.598 0Z" clip-rule="evenodd"></path><path fill="#000000" fill-rule="evenodd" d="M41.782 63.752c-13.741 8.628-11.185 7.03-11.824 7.35-.639.32 0 1.278.32.959 6.071-2.237 8.308-4.155 12.143-7.35.32-.32-.32-1.278-.64-.959Z" clip-rule="evenodd"></path><path fill="#000000" fill-rule="evenodd" d="M43.38 67.266c-1.279 1.917-2.238 3.196-2.238 6.072 0 .639.96.639.96 0 .319-.959 1.277-2.237 2.236-5.752.32-.32-.64-.959-.959-.32Z" clip-rule="evenodd"></path><path fill="#000000" fill-rule="evenodd" d="M48.173 81.967c4.154 9.906 13.102 1.598 17.575 2.556 1.918.64-1.598 4.794-6.71 4.794-3.835 0-7.03-1.918-9.587-.96-2.237.64-2.556 3.196-.959 4.794 5.113 6.072 19.173-3.195 16.937 1.279-1.918 3.834-7.99 1.597-12.143 1.278-.959 0-3.835 0-3.515.639.32.639.639 0 3.515.32 2.876.319 6.071 1.278 8.947.958 5.113-.64 6.391-5.752 2.876-6.072-2.556-.32-11.184 4.155-15.019.64-.959-.96-1.278-2.237.32-2.557 1.917-.32 5.432 1.279 8.947 1.279 7.989 0 12.143-7.99 6.072-8.309-5.113 0-12.463 7.03-15.978-1.278-.64-.32-1.598 0-1.278.639Z" clip-rule="evenodd"></path><path fill="#000000" fill-rule="evenodd" d="M44.657 84.203c0 3.196-.958 5.752.32 11.504 0 .64.959.64.959 0 0-4.154.639-6.071-.32-11.504 0-.639-.959-.639-.959 0Z" clip-rule="evenodd"></path><path fill="#000000" fill-rule="evenodd" d="M68.624 94.748c2.237-6.071 8.947-12.143 11.504-19.492 1.598-3.835 1.598-10.546.32-10.226-1.279.32 1.278 2.876-1.918 9.587-2.876 7.03-7.989 11.184-11.184 19.812.32.639.958.958 1.278.32Z" clip-rule="evenodd"></path><path fill="#000000" fill-rule="evenodd" d="M85.24 85.481c-3.514.959-2.875 4.474-.958 5.752-.639 2.237 1.918 4.474 4.474 2.556l.64-.639c.319.64.958.96 1.597.96s.959-.64.32-.96c-.96-.32-.64-1.278-1.598-1.278-.959 0-2.557 1.918-3.515.64-.32-.32-.32-1.279-.32-.96 0 0 0-.319.32-.638.32-.64 0-.96 0-.96-.64-.638-1.279 0-1.598-1.277-.32-.959.639-1.598 1.598-1.918.639-.32.639-.639.639-1.278.32-1.917 1.597-2.876 2.876-2.237.639.32.958-.639.32-.958-2.238-.959-4.794.958-4.794 3.195Z" clip-rule="evenodd"></path><path fill="#000000" fill-rule="evenodd" d="M97.064 87.08c1.918 1.917-1.278 2.556-1.597 2.875-.64.64-.32 1.278-.32 1.598-.32.959-1.598 1.278-2.556 1.278-.64 0-.64.959-.32.959 3.515.959 4.154-2.237 4.154-2.876 0 0 .63-.179.959-.32 2.237-.958 2.876-3.515.959-5.112 1.597-1.598 0-5.752-3.516-4.474-1.278-2.237-4.793.32-3.834.958.32.32.639 0 1.278-.639 1.278-.639 1.278.64 1.598.959.32.64 1.597 0 1.917 0 .64 0 1.598.959.959 2.237-.32.959-.959 1.598.32 2.556Z" clip-rule="evenodd"></path><path fill="#000000" fill-rule="evenodd" d="M93.55 86.44c-.424.064-.56-.08-.96.32-.319.319-.319.638 0 1.277 0 .96-.638 1.279-.958 1.279-1.278-.32-.32-1.598-2.237-1.279-.639-.319 0-.958.32-1.278.639-.32 0-1.278-.64-.958-1.917.958-1.597 3.515.64 3.515 1.278 3.195 5.113 1.278 4.793-1.279 3.196-1.917.32-6.39-2.237-4.154-.639.32 0 1.279.64.64.958-.96 2.236 1.278.638 1.917Z" clip-rule="evenodd"></path><path fill="#000000" fill-rule="evenodd" d="M86.839 93.79c.14.583.43 1.5.958 2.236.32.64 1.279.32.96-.319-.176-.813-.446-1.667-.96-2.237-.32-.639-.958-.32-.958.32Z" clip-rule="evenodd"></path><path fill="#000000" fill-rule="evenodd" d="M97.064 89.955c-.958 2.237-.639 2.237-.32 4.793 0 .64.96.64.96 0 .958-2.556.639-2.876.32-4.793 0-.32-.96-.64-.96 0Z" clip-rule="evenodd"></path></svg>