<svg xmlns="http://www.w3.org/2000/svg" fill="none" viewBox="0 0 100 100"><path fill="#000000" fill-rule="evenodd" d="M65.928 24.021c-15.573-2.92-20.115-.324-26.929 3.57-2.271 1.297-5.191 2.595-6.813 4.866-1.298 1.947 5.515 3.244 7.786 4.218 4.218 1.946 8.436 4.218 12.654 5.19 9.409 2.272 19.467-1.297 18.494-10.382-.325-3.244-2.92-6.813-3.57-5.84-.648.974 2.272.974 2.596 6.165.65 8.435-8.76 11.031-17.196 8.76-4.218-.973-8.11-3.244-12.329-5.191-1.946-.974-4.542-1.298-6.489-2.271 1.298-1.623 9.085-5.84 9.41-5.84 10.706-5.516 22.386-.65 22.71-2.272.325-.648 0-.973-.324-.973Z" clip-rule="evenodd"></path><path fill="#000000" fill-rule="evenodd" d="M69.822 27.915c3.893-1.947 11.68-3.57 16.222-3.893.65 0 .65-.974 0-.974-6.164-.324-12.004.325-16.871 3.894-.325.648 0 1.297.649.973Z" clip-rule="evenodd"></path><path fill="#000000" fill-rule="evenodd" d="M90.262 24.995c1.947.324 4.218.973 5.516 2.595 2.27 1.947 3.569 6.165 1.297 8.436-1.622 1.622-4.217 1.622-6.489 1.947-4.866.973-16.87 2.92-20.44-1.298-1.622-1.947-2.595 6.489 20.765 2.92 2.596-.324 5.516-.649 7.462-2.271 2.92-2.92 1.623-8.111-1.622-10.707-1.947-1.622-4.098-2.122-6.369-2.446-.464-.067-.769.824-.12.824Z" clip-rule="evenodd"></path><path fill="#000000" fill-rule="evenodd" d="M89.205 29.682c-5.412.676-3.044 6.427.676 6.089 3.721-.677 3.383-6.766-1.353-5.75l.677-.34Z" clip-rule="evenodd"></path><path fill="#000000" fill-rule="evenodd" d="M88.867 29.344c-6.09.338-4.06 8.118 1.014 7.103 5.074-.338 4.398-7.78-1.014-7.103Zm.338 1.014c-4.06 1.015-1.692 4.736 1.015 4.398 2.368-.338 2.368-4.736-1.015-4.398Z" clip-rule="evenodd"></path><path fill="#000000" fill-rule="evenodd" d="M59.775 29.343c-5.412.338-4.397 6.089-.676 6.427 3.383.676 5.75-4.736.676-6.427Z" clip-rule="evenodd"></path><path fill="#000000" fill-rule="evenodd" d="M58.084 29.005c-2.03.338-3.383 2.706-2.368 5.074 1.015 3.044 5.412 4.06 7.104 1.353 2.03-3.383-1.015-7.104-4.736-6.427Zm1.691 1.015c-.338 0-.338 0-1.353.338-1.353.338-2.03 1.692-1.353 3.383.677 1.691 3.044 2.368 4.398 1.015 1.014-1.692.676-3.721-1.692-4.736.339 0 .339 0 0 0Z" clip-rule="evenodd"></path><path fill="#000000" fill-rule="evenodd" d="M20.325 27.395c-10.058 8.76-11.007 13.55-14.252 17.767-1.947 2.596-4.06 10.656-2.763 18.443.973 5.191 3.893 10.707 9.733 14.6 12.654 8.436 29.525 12.005 44.45 8.436 9.084-1.947 18.169-7.787 25.956-12.654.649-.324 0-1.298-.325-.973-8.11 4.542-16.871 10.382-25.631 12.004-14.6 2.92-31.147-.648-43.152-8.76-5.191-3.569-7.787-8.435-9.084-13.627-1.298-6.813.324-13.95 1.946-16.222 3.245-4.218 4.42-9.657 13.829-18.092 0-.325-.383-1.57-.707-.922Z" clip-rule="evenodd"></path><path fill="#000000" fill-rule="evenodd" d="M63.008 18.83c-.973-1.297-2.92-12.653-16.547-13.627C39 4.555 32.187 8.448 27.32 13.963c-7.787 8.76-8.436 20.116-7.138 20.116.325 0 .325-.324.325-.324 0-6.489 3.244-13.303 8.11-18.494 11.032-11.68 25.308-9.409 30.824-.648.973 1.622 1.622 3.568 2.595 5.19.649.974 5.84.65 5.191 5.192 0 .649.974.649.974 0 .324-3.894-1.947-5.191-5.192-6.165Z" clip-rule="evenodd"></path><path fill="#000000" fill-rule="evenodd" d="M95.129 25.644c-.325-3.568-3.57-7.462-7.138-7.137-1.622-3.245-3.57-6.814-6.814-9.085-5.84-4.218-15.898-2.92-21.413 1.622-.325.325 0 1.298.649.65 4.866-3.894 14.275-4.868 19.791-.974 2.92 1.946 5.191 5.84 6.489 8.76 0 .324.649.649.973.324 2.92-.973 5.516 2.272 6.49 5.84.324.65 1.297.325.973 0Z" clip-rule="evenodd"></path><path fill="#000000" fill-rule="evenodd" d="M66.253 20.128c-.325 0-.325.324-.325.648.325.65.65 0 4.218-.324.325 0 11.356-.973 11.356-.973 3.893-.325 4.218.324 4.218-.325.648-1.622-11.68-1.622-19.467.974Z" clip-rule="evenodd"></path><path fill="#000000" fill-rule="evenodd" d="M59.764 18.182c-11.032-3.244-20.44-.973-26.605 3.893-.65.325 0 1.298.649.65 6.489-4.543 18.493-5.516 25.631-3.894.65.324.974-.649.325-.649Z" clip-rule="evenodd"></path><path fill="#000000" fill-rule="evenodd" d="M69.173 40.57c-1.623 3.244-6.49 5.19-10.058 5.84-.65 0-.65.973 0 .973 4.867 0 9.409-1.623 10.707-6.49.253-.947-.325-.973-.65-.324Z" clip-rule="evenodd"></path><path fill="#000000" fill-rule="evenodd" d="M61.71 46.085c-2.27 3.244-11.03 6.164-12.977 5.84-.65 0-.65.973 0 .973 2.27.324 8.11-.973 10.706-2.92.974-.649 3.894-3.569 2.92-4.218-.324 0-.648.325-.648.325Z" clip-rule="evenodd"></path><path fill="#000000" fill-rule="evenodd" d="M54.897 45.76c-3.244-.324-14.276-4.866-16.222-4.866-.65 0-.65.973 0 .973 0 0 8.435 3.569 11.031 4.542 6.489 1.298 6.165-.649 5.191-.649Z" clip-rule="evenodd"></path><path fill="#000000" fill-rule="evenodd" d="M98.049 36.35c-.65 4.218-7.463 9.409-9.41 10.058-2.27.973 3.245 3.569 5.192 12.005 0 .648.973.324.973-.325-.648-3.893-1.946-7.462-4.542-10.707 3.245-1.622 8.436-6.489 8.76-11.355 0 0-.973-.325-.973.324Z" clip-rule="evenodd"></path><path fill="#000000" fill-rule="evenodd" d="M85.72 47.057c-3.894-.325-4.218-.325-9.41.649-.648 0-.648.973 0 .973 5.84 0 5.192 0 9.41-.649.649 0 .649-.973 0-.973Z" clip-rule="evenodd"></path><path fill="#000000" fill-rule="evenodd" d="M72.418 46.732c5.84 4.543 4.866 3.57 5.84 4.543.324.648 1.297 0 .649-.65-1.947-2.92-3.245-3.893-6.165-4.866-.649-.325-.973.649-.324.973Z" clip-rule="evenodd"></path><path fill="#000000" fill-rule="evenodd" d="M91.884 66.849c3.245-1.947 5.84-5.192 2.596-7.138-1.947-.974-4.543-.325-6.49.324-21.413 6.49-30.173-2.271-43.151-2.271-5.516 0-12.978 2.271-12.978 7.787 0 5.84 6.165 5.84 11.68 5.84 12.33-.325 24.01 3.893 36.339 2.92 5.515-.325 13.626-2.271 12.004-7.463Zm-.973 0v-.65c2.595-1.297 5.191-4.217 2.92-5.515-1.622-.649-3.894 0-5.516.649-21.413 7.138-30.822-1.622-43.8-1.622-4.543 0-11.356 1.622-11.356 6.164s5.516 4.218 10.058 3.894c12.329-.325 24.01 4.217 36.338 3.569 4.867-.325 12.978-1.947 11.356-6.49Z" clip-rule="evenodd"></path><path fill="#000000" fill-rule="evenodd" d="M38.675 65.55c13.626-3.244 29.2 6.814 51.587.974.324 0 .324-.325.324-.65-.324-1.297-2.595 1.299-14.275.974-15.898-.324-25.307-5.515-37.96-2.27-.325.323-.325 1.297.324.972Z" clip-rule="evenodd"></path><path fill="#000000" fill-rule="evenodd" d="M25.697 65.226c-1.298 3.894.324 7.463 3.569 8.76.648.325.973-.648.324-.973-2.271-1.622-3.569-5.191-3.244-7.787.324-.324-.65-.648-.65 0Z" clip-rule="evenodd"></path><path fill="#000000" fill-rule="evenodd" d="M12.719 75.284C4.608 77.23 2.985 82.422.065 89.235c-.324.649.65.974.974.325 3.244-5.84 5.515-10.707 12.004-13.303.325 0 0-.973-.324-.973Z" clip-rule="evenodd"></path><path fill="#000000" fill-rule="evenodd" d="M68.524 81.774c1.298 1.297 9.085 8.76 9.733 8.11.325-.324.325-.648 0-.648-.973-1.298-1.946-2.271-2.92-3.245-.973-.973-6.164-5.515-6.813-4.542-.324 0 0 .325 0 .325Z" clip-rule="evenodd"></path><path fill="#000000" fill-rule="evenodd" d="M26.346 78.529c12.004 4.542 23.036 7.138 35.69 3.569.648-.325.324-.973-.325-.973-10.383 2.595-26.28-.65-35.04-3.57-.325 0-.65.65-.325.974Z" clip-rule="evenodd"></path><path fill="#000000" fill-rule="evenodd" d="M15.963 39.92c-.973 1.298-2.27 2.596-2.92 4.542-.649 1.947-.324 4.218 1.298 4.867 3.245.973 5.191-4.542 3.894-4.542-.65 0-.325.649-1.298 1.947-1.298 2.27-3.894 1.622-2.271-1.947 1.297-2.92 3.06-4.678 2.087-5.003-.111-.093-.575-.15-.79.136Z" clip-rule="evenodd"></path><path fill="#000000" fill-rule="evenodd" d="M27.643 24.346c-.648 2.596-3.244 5.191-3.893 8.111-1.298 4.218 3.245 6.165 5.191 2.596.325-.65 1.298-2.92.325-2.92-.65 0-.325.649-1.298 1.947-1.298 2.27-3.57 1.297-2.596-.974.65-1.622 4.543-8.76 2.92-9.085-.324 0-.649 0-.649.325Z" clip-rule="evenodd"></path><path fill="#000000" fill-rule="evenodd" d="M34.781 12.018c-.648.648-1.946 1.622-2.92 2.595-.649.973-.973 2.92.325 3.57 2.595 1.946 5.84-2.597 4.542-3.245-.649-.325-.649.648-1.622 1.297-.974.974-2.92.974-1.622-1.297 1.297-1.947 2.595-2.92 1.622-3.245.324 0 0 0-.325.325Z" clip-rule="evenodd"></path><path fill="#000000" fill-rule="evenodd" d="M75.013 11.692c0 1.298-.325 2.271.649 3.244.324.65 1.622 1.298 2.595 1.298 3.57 0 1.298-5.516.325-4.867-.649.325 0 .65.324 1.947 0 .325 0 1.298-.324 1.298-1.622 0-1.947-1.622-1.947-2.92-.649-.65-1.622-.65-1.622 0Z" clip-rule="evenodd"></path><path fill="#000000" fill-rule="evenodd" d="M12.719 60.359c-.649.973-.973 1.947-1.298 2.92-.324 1.622 0 3.569 1.298 4.218 1.622.973 3.569-.974 3.893-2.596 0-.649.325-2.92-.648-2.92-.65 0-.325.65-.65 2.271-.324.974-1.622 2.596-1.946 1.623-.973-1.298-.325-3.57.324-4.867 0-.974-.649-1.298-.973-.649Z" clip-rule="evenodd"></path></svg>