<svg xmlns="http://www.w3.org/2000/svg" fill="none" viewBox="0 0 48 48"><path stroke="#000000" stroke-linecap="round" stroke-linejoin="round" d="M11.415 43.309c-1.41-2.423-4.166-7.92-3.906-10.524.326-3.255.434-10.74 6.618-13.236 1.52-.76 2.604 1.194 1.302 2.17s-2.917 3.105-3.35 6.468"></path><path stroke="#000000" stroke-linecap="round" stroke-linejoin="round" d="M10.439 29.313c1.7-1.157 4.94-3.519 6.292-2.55 1.352.97.14 1.293-.9 2.244m-1.595 1.283c.467-.332 1.06-.794 1.595-1.283m0 0c1.186-.621 2.473-2.208 3.884-1.104 1.41 1.104-.796 2.495-1.79 3.038 1.12-.76 3.482-2.148 3.96-1.628 1.017 1.11 2.332 4.557-.76 6.768m1.03 7.282c.672-3.84-2.136-7.808-1.03-11.283"></path><path stroke="#000000" stroke-linecap="round" stroke-linejoin="round" d="M13.979 17.372c.306-2.722 1.115-6.55 3.512-6.394 9.167.597 9.8-1.717 13.073-1.573-5.587-10.849-20.939-2.983-22.078 2.93-.83 4.309-.24 6.64.64 8.315"></path><path stroke="#000000" stroke-linecap="round" stroke-linejoin="round" d="M8.16 14.938c2.422 1.198 3.587 1.35 6.076.651"></path><path stroke="#000000" stroke-linecap="round" stroke-linejoin="round" d="M30.547 9.39c.054.326 4.736 7.88 4.736 9.128"></path><path stroke="#000000" stroke-linecap="round" stroke-linejoin="round" d="M35.907 22.587c.434.47.786 2.343.57 3.471-.272 1.41-1.623 10.106-3.201 11.446-3.96 3.364-9.71 1.302-10.09-.488"></path><path stroke="#000000" stroke-linecap="round" stroke-linejoin="round" d="M33.547 37.234c3.382.613 10.86 2.616 13.453 5.695"></path><path stroke="#000000" stroke-linecap="round" stroke-linejoin="round" d="M8.125 36.266C5.792 38.38 1.043 42.756 1 43.146"></path><path stroke="#000000" stroke-linecap="round" stroke-linejoin="round" d="M26.82 20.851c-1.41-.705-3.471-.705-4.23-.705"></path><path stroke="#000000" stroke-linecap="round" stroke-linejoin="round" d="M30.401 21.99c.148 1.495.961 3.037 1.824 3.743 1.919 1.57.997 3.146 0 3.363-.997.217-5.025.868-3.126-1.681"></path><path stroke="#000000" stroke-linecap="round" stroke-linejoin="round" d="M25.953 33.002c.564-.304 1.537.488 1.953.922 2.333 2.437 5.914 1.842 6.985-.19"></path><path stroke="#000000" stroke-linecap="round" stroke-linejoin="round" d="M35.531 30.89c-1.03-1.356-6.69 2.595-7.937 2.704"></path><path stroke="#000000" stroke-linecap="round" stroke-linejoin="round" d="M28.031 34.047c2.404-.346 5.708-.963 7.282-2.156"></path><path stroke="#000000" stroke-linecap="round" stroke-linejoin="round" d="M35.822 22.589c-2.001.115-3.089.44-4.553 0 0-1.087.597-2.389 4.123-3.094"></path><path stroke="#000000" stroke-linecap="round" stroke-linejoin="round" d="M32.55 18.385c.488-.689 1.406-1.372 2.803-1.578"></path><path stroke="#000000" stroke-linecap="round" stroke-linejoin="round" d="M32.047 38.36c.337 1.66.27 3.125.008 4.786"></path><path fill="#000000" d="m24.5 10.781-7.844.406c-1.706 1.138-1.947 2.296-2.531 4.282-1.962.915-3.427.806-5.969-.563 0-4.906 4.498-8.855 9.594-10.343 7.813-2.282 12.156 2.656 12.75 4.75-.645-.092-2.535.455-6 1.468Z"></path><path stroke="#000000" stroke-linecap="round" stroke-linejoin="round" d="M26.956 24.359c-1.196.769-4.27 1.268-6.618 0 2.716-2.18 5.242-2.303 6.618 0Z"></path><path fill="#000000" fill-rule="evenodd" d="M22.936 22.713a1.252 1.252 0 1 0 0 2.504 1.252 1.252 0 0 0 0-2.504Z" clip-rule="evenodd"></path><path fill="#000000" fill-rule="evenodd" d="M33.395 20.146a1.252 1.252 0 1 0 0 2.504 1.252 1.252 0 0 0 0-2.504Z" clip-rule="evenodd"></path></svg>