<svg xmlns="http://www.w3.org/2000/svg" fill="none" viewBox="0 0 100 100"><path fill="#000000" fill-rule="evenodd" d="M52.413 3.163c2.595-2.92 5.19-1.622 8.11.973 0 0 4.866 4.542 4.866 4.866.973 1.622.325 2.271 1.298 2.271.973 0 .324-1.946-.325-2.92-.648-.973-4.217-4.866-4.866-5.514C57.28-1.054 53.71-.73 51.44 2.514c-.324.325.65.974.974.65Z" clip-rule="evenodd"></path><path fill="#000000" fill-rule="evenodd" d="M53.062 15.816c2.595 4.866 8.11 5.515 11.03 1.946.324-.324-.325-1.297-.65-.649-2.919 2.271-7.46.65-9.732-1.946 0-.325-.973.324-.648.649Z" clip-rule="evenodd"></path><path fill="#000000" fill-rule="evenodd" d="M67.011 23.277c-2.27 0-6.163-1.622-7.137-4.217-.324-.65-.973-.325-.973.324.649 3.244 3.893 5.84 8.11 4.866.65 0 .65-.973 0-.973Z" clip-rule="evenodd"></path><path fill="#000000" fill-rule="evenodd" d="M65.714 21.655c1.946.973 3.892-.65 3.892-2.596 0-.649-.648-.973-.973-.324-.324.973-2.27 1.622-2.92 1.946-.324 0-.648.974 0 .974Z" clip-rule="evenodd"></path><path fill="#000000" fill-rule="evenodd" d="M67.985 12.247c-.325-.65-1.298-.325-.974.324.325.973 0 2.595-.324 3.569-.649 1.297-.973 1.297-.649 1.622.649.973 4.542-1.947 1.947-5.515Z" clip-rule="evenodd"></path><path fill="#000000" fill-rule="evenodd" d="M52.413 3.812c-.65 1.297-.973 1.622 1.297 2.92-.324.973-1.297 1.621-.648 2.595.324.648.648 1.297 1.297.973.325 0 .325-.324.325-.649 0-.324-.325-.973-.325-.973.325-.649.974-1.622.974-2.27 0-.65-1.298-.974-1.623-1.299.65-.973.974-1.297.65-1.946-.65-.973-8.111-1.298-11.355 1.946-2.92 2.92-4.866 7.786-4.866 11.355 0 3.244.648 6.164 1.297 8.435 0 .648.974.324.974 0-.974-5.84-1.947-12.328 3.893-18.816 1.622-1.947 5.515-2.271 8.11-2.271Z" clip-rule="evenodd"></path><path fill="#000000" fill-rule="evenodd" d="M40.41 24.25c2.595-3.244 3.892-6.164 4.541-9.408.325-.325.973-.649 1.298-.973 1.622-1.298-.325-.65 3.244 1.297 1.297.65 4.866 1.298 4.542 0 0-.324-.325-.324-.65-.324-1.297.324-2.27-.325-3.243-.973-2.596-1.298-2.271-2.596-3.244-2.92-.65 0-.65.324-1.947 1.298-1.298.973-1.622.649-1.946 1.297-1.622 7.786-4.542 9.408-3.569 10.057.325.973.649.973.973.649Z" clip-rule="evenodd"></path><path fill="#000000" fill-rule="evenodd" d="M48.688 28.137c-5.788-1.315-6.314 3.947-2.367 5.262 2.63.79 5.261-2.105 4.472-3.683 0-.263-.263-.79-2.105-1.579Z" clip-rule="evenodd"></path><path fill="#000000" fill-rule="evenodd" d="M48.688 27.611c-6.577-2.104-7.892 5-2.63 6.578 3.683 1.052 7.892-3.947 3.683-6.051-.526-.264-1.053.526-.526.789 1.052.79 1.315 1.315.526 2.368-2.368 3.683-6.84-.526-4.736-2.105.79-.79 2.368-.79 3.42-.526.79 0 1.053-.79.264-1.053Z" clip-rule="evenodd"></path><path fill="#000000" fill-rule="evenodd" d="M55.008 30.413c-1.622-1.622-3.244-1.297-4.542-.324-.649.324 0 1.298.325.973.648 0 3.244.325 3.568.325.649.324.973-.65.649-.974Z" clip-rule="evenodd"></path><path fill="#000000" fill-rule="evenodd" d="M60.001 29.715c-6.05-1.052-6.314 3.947-2.63 5 2.63.788 6.05-2.106 3.42-4.473l-.79-.527Z" clip-rule="evenodd"></path><path fill="#000000" fill-rule="evenodd" d="M60.264 29.19c-6.84-1.579-7.63 4.998-2.894 6.314 3.42.79 7.367-2.894 3.947-5.525-.526-.526-1.053.263-.526.79 1.841 1.84-1.053 3.946-2.894 3.156-2.894-.789-2.631-4.21 2.367-3.683.264 0 .527-.79 0-1.052Z" clip-rule="evenodd"></path><path fill="#000000" fill-rule="evenodd" d="M50.466 33.334c-.649 1.297-.649 1.297-.324 3.244 0 .649.973.649.973 0 .649-1.947.649-1.622.324-3.244 0-.325-.973-.325-.973 0Z" clip-rule="evenodd"></path><path fill="#000000" fill-rule="evenodd" d="M48.195 36.253c-.649 1.622 1.622 5.19 4.218 3.893 1.297-.649 2.595-2.27 2.27-3.569 0-.648-.973-.648-.973 0 0 .65-.973 1.622-1.946 1.947-.649.324-.973 0-1.298-.325-.649-.324-1.622-1.297-1.297-1.946 0-.324-.974-.649-.974 0Z" clip-rule="evenodd"></path><path fill="#000000" fill-rule="evenodd" d="M48.195 42.092c3.244.325.325.325 6.489.325.648 0 .648-.974 0-.974-2.92-.648-3.893-.973-6.489-.324-.973 0-.648.973 0 .973Z" clip-rule="evenodd"></path><path fill="#000000" fill-rule="evenodd" d="M49.192 38.611c-2.368.348-2.631.696-4.21 1.218 0 0 1.053.174 1.316.174 2.105.174 3.42-.348 4.21-.348h.262c-.526-.522-1.578-.696-1.578-1.044Z" clip-rule="evenodd"></path><path fill="#000000" d="M50.507 40.176c-6.84 2.088-7.63-.87-5.788-1.218l5-.521c.788.348 1.578.348 1.578 1.043.263.522-.526.696-.79.696Z"></path><path fill="#000000" fill-rule="evenodd" d="M52.109 39.713c1.841.526 3.683 1.052 5.525.263-5.525-.79-2.631-1.841-5.525-.263Z" clip-rule="evenodd"></path><path fill="#000000" fill-rule="evenodd" d="M52.898 38.66c-.263.264-.79.264-1.052.527-.527.263-.527 1.052 0 1.315 2.104.79 3.683 1.316 6.05.527.79-.264.79-1.579-.262-1.579-3.947-.526-4.736-1.842-4.736-.79Z" clip-rule="evenodd"></path><path fill="#000000" fill-rule="evenodd" d="M38.787 25.872c-.324 5.84.325 11.03 3.569 15.896 1.297 1.947 2.595 4.542 5.19 5.19.974.325 1.298-.324 2.271-.324.325 0 .974.325 1.622.325 3.569.324 8.435-6.488 10.057-11.355.325-.648-.649-.973-.973-.324-1.298 3.893-4.217 6.813-6.164 8.435-2.92 2.595-3.568.973-4.866.973-2.27 0-1.947 1.622-5.84-4.217-2.92-4.542-4.217-9.733-4.217-14.923.325 0-.324-.325-.649.324Z" clip-rule="evenodd"></path><path fill="#000000" fill-rule="evenodd" d="M65.065 23.602c0 .324-1.622 5.514-1.622 5.839-.325 1.298-.974 1.622-.325 1.947.649.324 1.947-1.947 2.271-2.596.973-1.946.973-3.244.649-5.19 0-.325-.973-.325-.973 0Z" clip-rule="evenodd"></path><path fill="#000000" fill-rule="evenodd" d="M43.654 25.872c2.27 0 7.46 4.218 7.785 3.244 0-.324 0-.648-.324-.648-1.298-.974-3.244-2.92-5.515-3.569-2.92-.649-2.595.973-1.947.973Z" clip-rule="evenodd"></path><path fill="#000000" fill-rule="evenodd" d="M55.008 29.765c7.137.65 6.813-.973 7.786-.324.973.973 2.92-2.92-7.786-.649-.649 0-.649.973 0 .973Z" clip-rule="evenodd"></path><path fill="#000000" fill-rule="evenodd" d="M39.112 38.849c0-.324 1.297-2.595 1.297-2.92.325-.649-.648-.973-.973-.324-.649.973-2.27 2.27-2.27 3.568 0 .65 1.297 1.298 1.946 1.622 4.217 3.244 5.19 3.893 5.515 3.244v-.648l-2.92-2.92c-1.946-1.946-1.298-.973-2.595-1.622Z" clip-rule="evenodd"></path><path fill="#000000" fill-rule="evenodd" d="M48.195 46.635c2.92 2.595 4.866 3.568 7.786 5.84 2.271 1.621 4.542 3.568 7.462 4.217 4.541.973 8.434-3.893 7.461-8.11-1.298-5.516-6.488-7.787-9.408-12.004-.324-.649-1.298 0-.649.649 2.92 3.893 7.462 7.137 8.435 12.003.649 3.244-2.271 6.488-5.515 5.84-2.27-.325-4.542-2.271-6.813-3.57-2.27-1.621-5.434-3.473-7.705-5.42-.65-.648-1.703.23-1.054.555Z" clip-rule="evenodd"></path><path fill="#000000" fill-rule="evenodd" d="M47.547 60.584c3.893 4.217 9.083 11.679 16.87 15.247 2.594.973 6.487 2.596 7.785.325.324-.65-.324-.974-.649-.65-1.622 2.596-10.057-3.568-13.625-6.487-2.595-2.271-6.164-5.84-9.732-9.408-.325 0-1.298.649-.65.973Z" clip-rule="evenodd"></path><path fill="#000000" fill-rule="evenodd" d="M59.874 64.8c2.92 2.272 5.19 3.245 10.057 4.218.649 0 .973-.649.324-.973-1.297-.649 1.947.973-10.056-4.217-.325-.325-.65.648-.325.973Z" clip-rule="evenodd"></path><path fill="#000000" fill-rule="evenodd" d="M65.39 39.822c3.243 3.568 5.514 5.515 6.812 6.812.324.65 1.297 0 .649-.648-2.271-3.893-4.542-5.191-6.813-7.137-.649 0-1.298.648-.649.973Z" clip-rule="evenodd"></path><path fill="#000000" fill-rule="evenodd" d="M62.47 35.93c.648.324 1.297.648 2.27.973.65 0 1.298-.325 1.947-.325 6.164-.324 11.679 4.218 9.408 15.896-.325 1.623.649 2.596.973 3.893-.649.65-.973.974-.649 1.298.973 7.137-1.622 8.435-1.297 9.408 1.946 3.893 1.297 7.786 1.946 12.003.324 3.244 1.622 7.462 1.947 11.354.324 6.489-2.596 6.813-1.623 7.462.325.325.65 0 .65 0 4.541-4.866.972-13.3.648-19.14-.324-4.218.325-8.11-1.622-12.328 1.622-2.595 1.622-5.84 1.298-9.083l.648-.974c.65-.649-.648-1.946-.973-3.244-.324-.973 1.622-7.137-.973-12.328-1.946-4.217-6.488-6.812-12.003-5.514-.649 0-1.298-.65-2.271-.65-.649.325-.973 1.298-.325 1.298Z" clip-rule="evenodd"></path><path fill="#000000" fill-rule="evenodd" d="M79.014 58.961c8.11 13.95 1.298 17.843 6.164 30.82 0 .324.325.324.649.324.649-.325 0-.65-.649-3.893-1.946-10.706 3.569-13.626-5.19-27.575-.65-.65-1.298-.325-.974.324Z" clip-rule="evenodd"></path><path fill="#000000" fill-rule="evenodd" d="M78.944 95.226c.263-1.053.527-2.105.527-3.158 2.104-.526 4.209-1.052 6.314-1.841.263.79.526 1.578.526 2.368-4.21 2.104-6.84 2.368-7.367 2.63Z" clip-rule="evenodd"></path><path fill="#000000" fill-rule="evenodd" d="M79.47 95.488c2.368-.263 5.262-1.052 7.367-2.104.79-.263.526-1.316.263-2.105-.526-2.631-1.052-1.842-3.42-1.052-6.577 2.104-4.21.263-4.999 4.998-.263.263.263.79.79.263Zm.264-1.052c1.841-.526 3.946-1.316 5.525-2.368 0-.263-.263-.526-.263-.79-6.052 2.369-4.473 0-5.262 3.158Z" clip-rule="evenodd"></path><path fill="#000000" fill-rule="evenodd" d="M87.773 93.35c-.973-.324-.973-1.297-1.297-.973-.973.324.324 2.271 1.297 2.271 2.92.649 2.271-6.164-.324-6.488-.973 0-2.27.973-1.622 1.297.324.65.649-.324 1.298 0 0 0 .973 3.244.648 3.893Z" clip-rule="evenodd"></path><path fill="#000000" fill-rule="evenodd" d="M91.342 98.216c-.973-1.298-1.297-2.596-4.217-5.515-.325-.65-1.298 0-.649.649 1.298 1.946 1.622 3.893 4.217 5.515.65.324 1.298-.325.65-.65Z" clip-rule="evenodd"></path><path fill="#000000" fill-rule="evenodd" d="M21.27 33.009c-.65 3.893 1.297 6.813.972 10.705-.973 8.435-5.84 17.519-2.595 25.953 3.244 9.084 12.976 14.923 18.816 5.515 2.92-4.541 3.244-12.003 1.946-17.194-1.622-6.488-5.84-12.651-7.137-19.14-.648-3.893.974-7.786 1.298-12.003 0-.649-.973-.649-.973 0 0 3.893-1.947 8.11-1.298 12.003 1.622 10.381 10.057 17.519 6.488 31.468-.649 2.92-2.27 5.19-3.893 6.488-4.866 4.218-11.354-1.946-13.625-7.785-2.92-7.786 1.298-17.194 2.27-25.305.325-3.892-1.621-7.137-1.297-10.705 0-.649-.973-.649-.973 0Z" clip-rule="evenodd"></path><path fill="#000000" fill-rule="evenodd" d="M29.216 20.79c0 .325-.412 1.298-.412 1.623-2.596.973-4.542 2.92-3.893 5.515.324.649.973.324.973-.325-.649-1.946 1.298-3.568 3.568-4.217.325 0 .65-.324.65-.973 0-.973.324-.649.648-1.622.649-.974-.324-2.595-.649-3.893-.324-1.947 1.298-2.92 1.947-2.271.324.324 0 3.893 0 4.866.324 1.622 1.297 3.569 1.622 5.19.649 1.947 0 2.596.649 2.596.973 0 .324-1.946.324-2.92-.649-3.568-1.622-3.568-1.298-7.137 0-1.297.325-2.92-.648-3.893-1.947-1.946-3.622-.248-4.27 2.023 0 4.141 1.674 3.525.79 5.439Z" clip-rule="evenodd"></path><path fill="#000000" fill-rule="evenodd" d="M22.891 25.547c.325-.648 1.947-1.297 2.92-1.622 1.622-.324 1.946 0 1.946-.648.325-.65-1.946-.974-2.595-.974-2.27.325-3.569 2.92-2.92 3.244.325.325.65.325.65 0Z" clip-rule="evenodd"></path><path fill="#000000" fill-rule="evenodd" d="M20.62 19.383c.973-.324 5.84-.324 8.11 0 .65 0 .974-.648.325-.973-4.218-1.622-6.164-1.297-8.76 0-.324.325 0 1.298.325.973Z" clip-rule="evenodd"></path><path fill="#000000" fill-rule="evenodd" d="M31.326 13.544c1.298-6.812-6.813-6.488-5.515 4.866 0 .325.325.325.649.325.973 0 .078-5.538 2.998-7.809.99 0 .895 1.287.895 2.294 0 .649.973.973.973.324Z" clip-rule="evenodd"></path><path fill="#000000" fill-rule="evenodd" d="M22.891 18.086c-.648-5.19 1.947-10.706 2.596-10.381.973.649.324 3.568.324 7.786 0 .649.973.649.973 0 .325-4.218 1.622-7.462-.324-9.084-3.244-2.595-5.84 5.515-4.542 11.679 0 .649.973.649.973 0Z" clip-rule="evenodd"></path><path fill="#000000" fill-rule="evenodd" d="M22.242 33.008c-3.568-11.03-8.759-13.3-11.03-16.545-.648-.973-1.297-2.92.325-1.946.324.324 2.595 3.244 6.812 5.19h.974c.648-.648-.325-1.297-.65-5.515-.648-5.515.974-9.083 1.623-5.19 0 .324.649 10.381 2.27 9.732.65-.324.355-.87-.293-3.141-.65-2.92-.339-5.245-.663-6.867-.325-1.623-1.639-2.968-3.26-2.32-2.596.974-1.947 8.11-1.298 11.355-3.893-2.595-4.217-4.866-6.813-4.866-2.27 0-2.27 2.92-.973 4.866 1.946 2.92 8.11 6.488 11.354 15.896.974.325 1.622 0 1.622-.649Z" clip-rule="evenodd"></path><path fill="#000000" fill-rule="evenodd" d="M33.815 41.857c2.271-2.595 3.026-3.657 5.621-3.981.649 0 .649-.974 0-.974-3.893-.324-4.972 1.386-6.27 4.63-.324.325.325.65.65.325Z" clip-rule="evenodd"></path><path fill="#000000" fill-rule="evenodd" d="M32.3 79.075c2.27 5.19 5.514 14.599 6.163 20.438 0 .649.973.649.973 0-.973-10.38-2.595-13.95-6.488-20.762-.324-.649-.973-.325-.649.324Z" clip-rule="evenodd"></path><path fill="#000000" fill-rule="evenodd" d="M18.998 75.507c-.648.325-1.297 1.622-.973 2.596.65 2.27 4.218.324 3.569-1.947-.65-1.622-2.596-1.297-2.596-.649Zm.65.65c-.65 1.297 0 1.621-.325 1.297.973-.325.973-.973.324-1.298Z" clip-rule="evenodd"></path><path fill="#000000" fill-rule="evenodd" d="M24.513 85.889c-.324-.325-.649 0-.973.649-1.298 1.622 0 2.92 1.622 2.27 1.946-.973 1.622-2.92-.649-2.92Zm0 1.297c.325.325 0 .325 0 0Zm.324-.324c.325.324 0 .324 0 0Zm-.324.324c0-.324 0-.324 0 0Zm0-.324c.325 0 .325 0 0 0Z" clip-rule="evenodd"></path><path fill="#000000" fill-rule="evenodd" d="M41.707 73.237c-2.595 2.595.649 4.866 2.595 3.244 1.622-1.622-.324-4.218-1.946-3.893-.325 0-.649.324-.649.649Zm.973.324c-.324.325-.648.973-.324 1.298h.324c.974.324.974-.973 0-1.298Z" clip-rule="evenodd"></path><path fill="#000000" fill-rule="evenodd" d="M30.028 58.962c-2.595 1.622-1.297 4.866.65 4.866 3.568-.325 2.27-4.542 0-5.515-.65-.649-.974.324-.65.649Zm.974.648c-.974.974-.65 2.271-.325 2.271.65 0 .974 0 .65-.973 0-.324-.325-.973-.325-1.298Z" clip-rule="evenodd"></path><path fill="#000000" fill-rule="evenodd" d="M28.082 30.414c-.649.649-.973.649-.649 2.27-.324.65.649.974.973.325.65-.973.974-.973.65-2.27.323-.65-.65-.974-.974-.325Z" clip-rule="evenodd"></path><path fill="#000000" fill-rule="evenodd" d="M29.704 40.794c-.324.974-.324.974.649 1.947.324.649.973.324.973-.325 0-.973.325-1.297-.649-1.946-.324-.325-1.297-.325-.973.324Z" clip-rule="evenodd"></path><path fill="#000000" fill-rule="evenodd" d="M26.135 50.851c-.973.65-.649.974-.649 1.947-.324.648.65.973.974.324.973-.973.648-1.297.648-1.946.325-.65-.648-.974-.973-.325Z" clip-rule="evenodd"></path><path fill="#000000" fill-rule="evenodd" d="M33.921 54.42c0 1.622 0 1.297 1.298 2.92.324.648.973.324.973-.325 0-1.622 0-1.946-1.298-2.92-.648-.648-1.297-.324-.973.325Z" clip-rule="evenodd"></path><path fill="#000000" fill-rule="evenodd" d="M24.513 66.423c-.648.973-.973.973-.648 3.244 0 .649.973.649.973.324.649-1.297.973-1.297.649-3.244 0-.973-.974-.973-.974-.324Z" clip-rule="evenodd"></path><path fill="#000000" fill-rule="evenodd" d="M37.814 81.347c.325 1.622.325 1.622 1.622 2.595.325.649 1.298 0 .974-.324-.325-1.947-.65-1.947-1.622-2.596-.65-.648-1.298 0-.974.325Z" clip-rule="evenodd"></path><path fill="#000000" fill-rule="evenodd" d="M61.82 32.685c.325.649.325.649 1.623.325.648 0 .973-.65.324-.974-.649-.649-.649-.649-1.622-.324-.649 0-.973.649-.325.973Z" clip-rule="evenodd"></path><path fill="#000000" fill-rule="evenodd" d="M43.654 29.116c-1.298-.65-.974-.325-.974-1.298 0-1.298-.324-2.92-1.297-4.542-.325-.648-.974-.324-.974.325.325 2.27.325 6.163 1.298 6.488 1.947.324 2.271.324 2.271-.324 0-.325 0-.65-.325-.65Z" clip-rule="evenodd"></path><path fill="#000000" fill-rule="evenodd" d="M39.112 21.006c-1.947-.65-4.218 3.244-2.271 7.785.973 1.947 2.595 2.92 2.92 2.271 0-.324 0-.649-.325-.649-2.27-.973-2.27-8.434-.649-8.434.65.324.974-.649.325-.973Z" clip-rule="evenodd"></path></svg>