<svg xmlns="http://www.w3.org/2000/svg" fill="none" viewBox="0 0 100 100"><path fill="#000000" fill-rule="evenodd" d="M57.31 37.691c.647 3.234 3.234 5.175 4.851 7.439.324.323.97.646 1.294 0 1.94-1.94 8.732-10.35 9.379-13.26.323-1.617-.324-3.234-.647-4.851 0-.647-.97-.324-.97.323.647 4.528 1.617 3.881-2.588 9.056-1.617 1.94-3.88 5.174-5.497 6.791-1.617-1.94-4.205-3.557-4.851-6.145 0-.323-.97 0-.97.647Z" clip-rule="evenodd"></path><path fill="#000000" fill-rule="evenodd" d="M55.046 33.487c-.646.647-.646.647-.323 1.617 0 .647.647.97.97.323.647-.97.647-.646.324-1.617.323-.646-.647-.97-.97-.323Z" clip-rule="evenodd"></path><path fill="#000000" fill-rule="evenodd" d="M56.663 34.78c-.646.648-.646.648-.323 1.618 0 .646.97.646.97 0 .647-.97.647-.97.324-1.617 0-.324-.97-.647-.97 0Z" clip-rule="evenodd"></path><path fill="#000000" fill-rule="evenodd" d="M58.28 35.752c-.646.647-.646.97 0 1.94 0 .647.97.647.97 0 .324-.97.648-.647 0-1.617 0-.97-.97-.97-.97-.323Z" clip-rule="evenodd"></path><path fill="#000000" fill-rule="evenodd" d="M60.544 36.398c-.646.97-.323.97 0 1.617 0 .647.97.647.97 0 .324-.97.324-.97 0-1.617 0-.324-.97-.647-.97 0Z" clip-rule="evenodd"></path><path fill="#000000" fill-rule="evenodd" d="M62.485 36.075c-.324.97-.647 1.294.323 2.264.324.647.97.324.97-.323 0-1.294.324-.97-.323-2.264 0-.324-.97-.324-.97.323Z" clip-rule="evenodd"></path><path fill="#000000" fill-rule="evenodd" d="M64.425 35.105c-.323.97 0 1.294.97 1.617.324.647 1.294 0 .97-.323 0-1.294 0-.97-.646-1.617-.647-.647-1.617-.323-1.294.323Z" clip-rule="evenodd"></path><path fill="#000000" fill-rule="evenodd" d="M65.719 33.488c0 1.294.323 1.294 1.293 1.94.324.648 1.294 0 .97-.323-.323-1.617-.646-1.617-1.293-1.94-.323-.647-1.294-.323-.97.323Z" clip-rule="evenodd"></path><path fill="#000000" fill-rule="evenodd" d="M67.66 32.517c0 .647 0 .647.97.97.323.324 1.293-.323.646-.646 0-.97 0-.97-.97-.97-.323-.647-.97 0-.647.646Z" clip-rule="evenodd"></path><path fill="#000000" fill-rule="evenodd" d="M69.276 31.223s0 .324.324.647c.323.323.647 0 .97 0 .647.323.97-.323.647-.647-.323-.647-.323-.97-.97-.97-.97-.323-1.617.647-.97.97Z" clip-rule="evenodd"></path><path fill="#000000" fill-rule="evenodd" d="M69.923 28.637c.324.97.647.647 1.294.647.647.323.97-.323.647-.647-.324-.97-.647-.97-1.294-.647-.647-.323-1.294.324-.647.647Z" clip-rule="evenodd"></path><path fill="#000000" fill-rule="evenodd" d="M56.987 29.606c.323.324 1.294.647 1.94.324.378-.26.324-.324.647-.647 1.617-.324 2.264-1.617 1.94-2.588 0-.646-.97-.646-.97 0 0 .324-.323.97-.97.97s-.383.549-1.617.648c-.323 0-.484.022-.647-.324-.302.092-.474-.04-.323-.323 1.294-1.94.323-5.498-.647-5.175-.647.324 0 .647 0 2.264 0 1.294-.647 1.617-.97 2.264-.323 1.294.323 2.587 1.617 2.587Z" clip-rule="evenodd"></path><path fill="#000000" fill-rule="evenodd" d="m54.723 30.9.97-.97c.324-.323.647-1.293.97-1.293.648-.324 0-1.294-.646-.97-1.294.323-1.94 1.293-1.94 2.587-.324.97.323 1.293.646.646Z" clip-rule="evenodd"></path><path fill="#000000" fill-rule="evenodd" d="M61.191 27.019c.97.323 2.264.97 3.558 1.94 1.293.97 1.293 1.617 1.617 1.294.647-.324-.324-2.264-.97-2.911-1.617-1.617-2.911-1.294-4.205-1.294-.323 0-.323.97 0 .97Z" clip-rule="evenodd"></path><path fill="#000000" fill-rule="evenodd" d="M64.749 30.577c.323-.324 0-.97-.647-.647h-.97c-2.911-.647-2.911.647-3.881.647-.647 0-1.617-.97-2.911 0s-.647 1.94.647 2.587c.97.647 1.617.97 3.234.647 2.264-.324 4.528-2.91 4.528-3.234Zm-1.617.323c-1.94 0-1.617.324-2.911.97-1.294.647-2.91-.646-1.294.324 1.294.646 3.234-.324 4.205-1.294Z" clip-rule="evenodd"></path><path fill="#000000" fill-rule="evenodd" d="M56.017 22.169c-1.294-.97-3.234 0-3.558 1.94-.323.647.647.97.97.324.573-1.294 1.704-1.574 2.264-1.294.647.324.97-.647.324-.97Z" clip-rule="evenodd"></path><path fill="#000000" fill-rule="evenodd" d="M49.872 16.994c-.647 5.498.647 6.145.97 8.732.324 2.588-.323 8.409 5.822 11.967 3.88 2.263 7.114 2.587 12.289-3.235 2.587-2.587 3.557-3.557 2.91-6.791 2.911-.324 2.911-5.175 1.941-7.762-.97-1.94-2.587-1.617-3.234.647 0 .647.647.97.97.323 1.294-4.85 3.234 6.468-.323 5.498-.324 0-.97.324-.97.647.323 3.234.646 3.234-2.588 6.468-4.85 5.175-7.115 4.528-10.349 2.587-5.174-3.234-4.85-8.085-5.498-10.672-.646-2.587-1.94-3.234-1.293-8.409.323-.646-.324-.646-.647 0Z" clip-rule="evenodd"></path><path fill="#000000" fill-rule="evenodd" d="M52.459 14.73c4.204-5.498 5.821-5.174 5.175-5.82-.324-.648-2.588.646-3.234.97-1.617 1.293-2.264 2.587-2.911 4.204-.324.97.647 1.293.97.646Z" clip-rule="evenodd"></path><path fill="#000000" fill-rule="evenodd" d="M57.31 11.172c2.911-.646 3.083-1.109 3.881-1.617.466-.343.647-.97 0-.97-2.264 0-2.91.647-4.204 1.617-.647.647-.323 1.294.323.97Z" clip-rule="evenodd"></path><path fill="#000000" fill-rule="evenodd" d="M61.838 11.173c1.262-.3 1.906-.719 2.587-1.294.647-.323.324-.97-.323-.97-.83.09-1.94.323-2.91 1.294-.324.323 0 1.293.646.97Z" clip-rule="evenodd"></path><path fill="#000000" fill-rule="evenodd" d="M66.366 11.495c.632-.265.323-.97 0-.97-.426-.082-1.346-.065-1.94.324-1.159.962 1.19 1.021 1.94.646Z" clip-rule="evenodd"></path><path fill="#000000" fill-rule="evenodd" d="M67.013 14.406c.441 0 .646-.162.97-.324.647-.323.323-1.293-.324-.97-.252.072-.554.116-.97.324-.647.323-.323.97.324.97Z" clip-rule="evenodd"></path><path fill="#000000" fill-rule="evenodd" d="M68.63 14.407c-.97 2.91 0 4.85 1.94 6.791.324.647 1.294 0 .647-.646-.97-1.941-1.94-4.852-1.617-6.145.323-.324-.647-.647-.97 0Z" clip-rule="evenodd"></path><path fill="#000000" fill-rule="evenodd" d="M58.28 5.675c-2.587.323-9.701 3.234-7.761 4.85-1.294 1.294-2.587 2.588-3.234 4.528 0 0-.323.324-.323.647 0 .647.646 1.294 1.94.647 0 .97-.323 1.617 0 3.234.323.97.647 2.587 1.294 2.264.97-.647-.97-.97-.324-5.498 0 0 .324-.323.324-.647 0-.323 0-.647-.647-.647h-.647c1.94-3.234 5.498-4.204 4.528-5.498 6.144-3.234 7.115-.646 7.438-2.263v-.324c3.557 0 7.115 1.294 8.732 4.204.647.97 2.91-.97 2.91 5.498 0 2.911-.323 3.558.324 3.558.323 0 .647 0 .647-.324.647-3.88.97-9.055-2.587-9.702-.97-1.293-1.94-2.587-3.234-3.234-3.234-1.94-6.792-1.617-7.439-1.617-.97 0-1.617-.647-1.94 0v.324Z" clip-rule="evenodd"></path><path fill="#000000" fill-rule="evenodd" d="M54.723 20.229c-1.294 0-1.617 0-2.91 1.293-.647.324 0 1.294.646.97.864-.364 1.474-.457 2.91-1.293.358-.354.056-.87-.646-.97Z" clip-rule="evenodd"></path><path fill="#000000" fill-rule="evenodd" d="M60.221 20.229c.59.134 1.294.323 1.94.323 1.294 0 1.972-.1 2.911-.323.647 0 .726-.798.324-.97-2.264-.971-3.234-.648-4.851 0-.91.254-.647.97-.324.97Z" clip-rule="evenodd"></path><path fill="#000000" fill-rule="evenodd" d="M61.514 22.491c.311-1.617 2.588-.647 2.911-.647.647.324.97-.647.324-.97-2.911-1.94-4.851.323-4.205 1.617.324.97 1.294.647.97 0Z" clip-rule="evenodd"></path><path fill="#000000" fill-rule="evenodd" d="M62.161 22.169c0 .646.647 1.293 1.294.646 1.294-.97-.97-2.263-1.294-.646Z" clip-rule="evenodd"></path><path fill="#000000" fill-rule="evenodd" d="M54.485 23.083c-.97.647 0 1.94.647 1.294.97-.97-.647-1.94-1.293-.647l.646-.647Z" clip-rule="evenodd"></path><path fill="#000000" fill-rule="evenodd" d="M63.132 43.836c-1.94 1.294-2.91 2.91-2.587 6.145 0 .646.97.646.97 0 .323-.97.647-1.94.97-2.588 1.294-3.234 1.94-3.234 1.294-3.88 0 0-.324.323-.647.323Z" clip-rule="evenodd"></path><path fill="#000000" fill-rule="evenodd" d="M60.221 70.033c-.323 3.557-.647 4.204.324 10.349 0 .647.97.647.97 0 .323-4.851.647-5.175-.324-10.35 0-.646-.97-.646-.97 0Z" clip-rule="evenodd"></path><path fill="#000000" fill-rule="evenodd" d="M70.57 43.513c0-.97 0-2.91-.647-3.234-.323-.323-.97-.647-2.264.647l-.646.97c-.324.323.323.97.646.647l1.294-1.294c.324.97 0 2.264 0 3.234.324 2.588 1.294 2.588 2.587.647.97-1.293 1.294-2.264 1.94-3.557 1.294-2.264 2.588-4.528 2.588-7.115 0-4.528-4.204-7.762-4.528-6.468-.323.647.324.647.97 1.293 1.294.97 2.264 3.234 1.941 5.175-.323 2.264-1.617 4.528-2.587 6.145-.324.646-.97 2.263-1.294 2.91Zm0 1.294c.324 0 .324 0 0 0Z" clip-rule="evenodd"></path><path fill="#000000" fill-rule="evenodd" d="M54.723 38.015c-.97 2.91-.97 4.204 1.94 6.145 1.94 1.294 1.94 1.617 2.264 1.294.97-.97-2.91-2.588-3.234-5.498 0-1.617 0-1.94-.323-2.264-.324 0-.647 0-.647.323Z" clip-rule="evenodd"></path><path fill="#000000" fill-rule="evenodd" d="M55.37 39.956c-.647.646-1.294 1.617-.324 1.94.647.323.647-.647 1.294-.647 1.294.647 2.91 2.91 3.557 2.264.647-.647-2.587-5.174-4.527-3.557Z" clip-rule="evenodd"></path><path fill="#000000" fill-rule="evenodd" d="M54.4 35.105c-2.911 3.558-6.792 3.558-8.409 4.851-1.294.97-1.617 1.94-2.587 2.587-.97.97-2.91 1.617-3.558 2.911-.97 1.617-.646 2.91-1.293 4.528-1.294 2.587-2.588 3.88-1.617 6.791.323.647.97.324.97-.323-.647-2.587.647-3.881 1.94-5.822.647-1.293.647-2.91 1.294-4.204.647-.97 2.264-1.617 3.234-2.264.97-.646 1.617-1.94 2.587-2.587 1.294-.97 5.498-1.294 8.409-5.498.323-.97-.647-1.617-.97-.97Z" clip-rule="evenodd"></path><path fill="#000000" fill-rule="evenodd" d="M40.817 50.304c.646 3.558 1.617 4.205 3.88 7.115.324.647 1.294 0 .97-.323-2.263-5.498-2.587-4.851-3.557-7.115-.647-.647-1.617-.323-1.293.323Z" clip-rule="evenodd"></path><path fill="#000000" fill-rule="evenodd" d="M43.727 51.922c1.617 4.527 0 9.702.647 13.906 0 .97.324 1.94.324 3.234v2.587c.323 2.588.97 2.911.97 5.822 0 2.91-.647 3.88.323 3.88.324 0 .647-.323.647-.323 0-1.94.647-3.557.323-6.145-.323-1.293-.323-1.94-.646-3.234-.324-7.761-.647-2.91-.324-10.025 0-3.558 0-6.792-1.293-10.026-.324-.97-1.294-.323-.97.324Z" clip-rule="evenodd"></path><path fill="#000000" fill-rule="evenodd" d="M36.936 64.858c-.647 2.588 2.264 4.852 4.527 6.469 3.558 2.91 3.558 3.234 4.205 2.91.97-.97-4.528-5.821-5.498-6.468-.647-.647-1.94-1.617-1.94-2.587-.324-.97-1.294-.97-1.294-.324Z" clip-rule="evenodd"></path><path fill="#000000" fill-rule="evenodd" d="M35.642 57.096c-3.557 2.91-3.234 5.821-.97 7.115.647.323.97-.323.647-.647-.97-.97-.647-1.94-.324-3.234l1.294-2.587c.647-.324 0-.97-.647-.647Z" clip-rule="evenodd"></path><path fill="#000000" fill-rule="evenodd" d="M27.557 70.356c-.97.647-4.204 2.587-3.234 3.557.323.324.647-.323 1.94-.97 1.294-.97 1.617-.97 2.264-1.294.97-.647.647-1.94 1.94-3.234 2.588-2.587 2.657-4.998 4.274-7.585 0-.323 0-.647-.324-.647-.97-.647-2.656 4.351-5.243 6.939-1.294 1.293-1.294 2.263-1.617 3.234Z" clip-rule="evenodd"></path><path fill="#000000" fill-rule="evenodd" d="M68.63 66.152c2.91-1.94 4.85-5.821 4.527-7.761.324 0 .647.323.647.323 1.293 1.294 6.145 2.91 6.468 3.557.323.647.647.647 1.294.324 2.263-1.294 5.174-.647 6.144 1.617.647 1.617 3.558-1.94 6.792-.647.97.324 1.94 0 2.91 0 1.618-.323 1.618.323 1.941-.323.323-.647-.647-.97-1.294-.97-.97 0-2.587.646-3.234 0-1.94-.97-4.204-.324-6.468.646-1.293-2.587-4.528-3.557-7.115-2.264-.647-.646-5.498-2.587-6.145-3.557-.646-.647-1.293-.97-1.94-.97-.323 0-.97-.647-1.617 0-.97.97.97 1.617-1.617 5.498-1.617 2.263-1.617 1.94-2.91 2.91-2.264 1.294 3.88 5.175 4.527 5.498 1.94 1.617 2.264 3.881 6.145 5.175 2.91.97 3.557.323 7.438 2.264 4.851 2.263 5.822 3.234 6.468 2.587 0-.324 0-.647-.323-.647-1.94-.97-3.558-1.94-5.498-2.91-5.175-2.588-8.085-1.618-10.672-4.205-.97-.97-1.617-2.264-2.588-3.234-.97-.97-2.91-1.617-3.88-2.91Z" clip-rule="evenodd"></path><path fill="#000000" fill-rule="evenodd" d="M98.706 68.416c-.97-1.94-1.617-2.91-4.204-4.204-.647-.324-.97.323-.647.646 2.264 2.264.647 1.294 3.881 3.881.647.97 1.294.324.97-.323Z" clip-rule="evenodd"></path><path fill="#000000" fill-rule="evenodd" d="M87.71 64.212c.97 5.498 2.588 4.851 4.205 6.468.205.205.44.138.647 0 .97-.647-.647-.97-3.881-6.792 0-.646-.97-.323-.97.324Z" clip-rule="evenodd"></path><path fill="#000000" fill-rule="evenodd" d="M80.596 62.271c-.97 2.264-3.558 5.822-6.145 7.762-.647.323 0 1.294.647.97 3.557-1.94 5.821-4.204 6.468-8.085 0-.97-.647-1.294-.97-.647Z" clip-rule="evenodd"></path><path fill="#000000" fill-rule="evenodd" d="M61.121 56.155c-.97.324-1.223.618-1.223 1.265 0 .647.323 1.294.646 1.94-.646 1.294-.323 1.618.647 2.911-.97.97.647 3.881 5.822 3.881.646 0 .646-.97 0-.97-1.294 0-4.205-.97-4.528-2.264.323-.323.647-.323.323-.97 0-.97-1.293-1.617-1.293-1.617-.324 0 .323-.647.323-.647.323-.323 0-.647 0-.97-.323-.323-.97-1.617-.647-1.617 0 0 .93-.095.93-.418 0-.825-.621-.817-.445-1.922 0 0 .485-.57 3.72.076.646.323.97-.647.323-.97-1.617-.647-3.88-.97-4.851.323 0 0-.552 1.403.253 1.97Z" clip-rule="evenodd"></path><path fill="#000000" fill-rule="evenodd" d="M61.838 51.921c9.702 0 9.379 6.469 10.673 5.822.323 0 .323-.324.323-.647-2.264-4.204-2.587-5.821-7.762-6.468-6.791-.97-5.498 2.587-.97 3.88.647.324.97-.646.323-.97-.97-.323-2.263-1.293-2.587-1.617Z" clip-rule="evenodd"></path><path fill="#000000" fill-rule="evenodd" d="M59.897 50.305c-2.263-.324-9.055-1.294-10.995.97-.97.97-.647 2.91-.324 4.528 1.294 9.055.97 11.966 3.558 12.936 1.293.647 4.204.647 5.821 0 2.91-.97 2.91-4.204 3.88-7.439 0-.323 0-.646-.323-.646-1.293-.324-.97 5.821-3.88 6.791-1.294.324-3.558 0-4.528-.323-1.617-.647-1.294-1.617-1.94-6.145-1.294-7.762-1.941-8.408-.324-9.055.647-.324 2.587-.647 4.528-.647 4.204 0 5.174.647 5.174-.323 0-.324-.323-.647-.647-.647Z" clip-rule="evenodd"></path><path fill="#000000" fill-rule="evenodd" d="M51.165 52.246c.647 1.94 5.175 1.94 8.732.323.324 0 .324-.323.324-.647-.324-.647-.647-.323-2.264 0-.324 0-5.498.324-5.821 0-.324-.647-1.294-.323-.97.324Z" clip-rule="evenodd"></path><path fill="#000000" fill-rule="evenodd" d="M22.706 74.56h-.647c-.647.324-1.294.647-1.617 1.941-.323.647.323.97.97.647 1.294-1.294 1.94-.647 2.264-.97.647 0 1.294-.97 1.617-1.617.97-.97 1.294-.97 3.234-.324.647.324.97-.646.323-.97-1.94-1.293-3.234-1.617-4.85 0-.97.647-.97.97-1.294 1.294Zm0 0c.323 0 .323-.323 0 0Z" clip-rule="evenodd"></path><path fill="#000000" fill-rule="evenodd" d="M22.059 77.471c-.323 4.851 0 3.881 0 6.145 0 .647.97.647.97 0 .97-2.91.647-4.204 0-6.468-.323-.324-1.293 0-.97.323Z" clip-rule="evenodd"></path><path fill="#000000" fill-rule="evenodd" d="M26.587 81.352c-.647-.324-.324-2.588 0-3.234.323-2.588.97-3.234.323-3.234-.323 0-.647 0-.647.323-.323.97-.97 2.264-1.294 3.234-1.293 4.851 2.264 6.468 4.205 2.587.647-1.293.647-2.587 1.293-3.557.324-.324-.323-.97-.646-.647-1.617 1.294-1.94 3.558-3.235 4.528Z" clip-rule="evenodd"></path><path fill="#000000" fill-rule="evenodd" d="M22.382 83.292c0 3.234 3.558 3.234 4.205.324 0-.324.323-2.264-.324-2.264s-.323.323-.97 1.617c-.323.647-.647.97-.97.97-.324 0-.647-.647-.97-.97-.324-.324-.97-.324-.97.323Z" clip-rule="evenodd"></path><path fill="#000000" fill-rule="evenodd" d="M28.204 81.028c2.91 1.294 1.617.324 2.587 1.94 2.264 3.235 5.821.971 3.881-3.233-.647-1.617-1.94-3.234-2.91-4.205-.324-.323-.324-.323-.648 0-.646.647.97 1.617 1.941 4.852.323.97.323 1.617 0 2.263-.323.647-1.617-.97-1.617-1.293 0-.324-.323-.647-.647-.647-2.587-.647-2.91-.97-3.234-.323.324 0 .324.323.647.646Z" clip-rule="evenodd"></path><path fill="#000000" fill-rule="evenodd" d="M47.523 86.63c0 2.264-1.294 4.85.323 4.85 7.439-.646 42.043.971 45.924-.646 2.264-.97 2.588-4.851.97-6.468-4.204-3.881-22.315-.97-30.076-.323-4.528.323-9.38-.324-13.907.646-.647 0-.323.97.324.97 4.527-.97 9.378 0 13.906-.323 6.145-.323 25.55-2.91 28.783.323.647.647.647 3.235-.323 3.558-2.587 1.294-34.605.323-44.63.97 0-2.587.97-5.174-.647-4.85-1.94.322-2.91.322-2.91.97-.324.97.646.646 2.263.323Z" clip-rule="evenodd"></path><path fill="#000000" fill-rule="evenodd" d="M40.817 83.293c-.324 0-17.464 6.144-17.788 6.144-.646.324-.323.97.324.97 5.498-1.293 26.196-6.79 21.021-8.408h-1.293c-7.115.324-7.762 0-7.762.647s.323.323 5.498.647Zm2.587 0c.323.323.323 0 0 0 .323 0 .323 0 0 0Z" clip-rule="evenodd"></path><path fill="#000000" fill-rule="evenodd" d="M28.85 73.267c1.294.324 3.235 1.94 4.528 4.204.324.647 1.294.324.97-.323-.97-3.557-2.91-4.851-5.497-4.851-.647 0-.647.97 0 .97Z" clip-rule="evenodd"></path><path fill="#000000" fill-rule="evenodd" d="M38.876 80.704c1.294-.323 2.264-.323 3.558.324.646 0 .97-.324.97-.97-2.264-7.439-5.175-7.439-9.056-9.056-.323 0-.646 0-.646.324-.324 1.293 3.557.97 6.144 5.174.647.97.97 1.94 1.617 2.91-.97 0-1.94 0-2.91.648-.647 0-.324.97.323.646Z" clip-rule="evenodd"></path><path fill="#000000" fill-rule="evenodd" d="M34.672 80.705c5.498 0 10.672.97 17.14 1.294 1.294 0 40.426-.97 47.218-.97.647 0 .647-.97 0-.97-17.464-.324-19.405.323-64.358 0-.647-.324-.647.646 0 .646Z" clip-rule="evenodd"></path><path fill="#000000" fill-rule="evenodd" d="M75.421 32.84c8.409 2.587 16.817 8.409 20.698 16.494 1.294 2.91 1.617 6.791 2.91 10.025.324.647.971.324.971-.323-2.264-7.438-.647-20.375-23.932-27.166-.97-.323-1.294.647-.647.97Z" clip-rule="evenodd"></path><path fill="#000000" fill-rule="evenodd" d="M86.417 43.513c-3.558 6.468-2.802 12.932-2.306 17.74 0 .647.97.647.97 0 0-5.175.366-12.242 2.306-17.093.324-.97-.647-1.294-.97-.647Z" clip-rule="evenodd"></path><path fill="#000000" fill-rule="evenodd" d="M87.71 62.594c.324-1.294 2.911-5.498 3.235-5.822 2.263-3.88 2.91-3.88 2.587-4.204-.324-.323-.647-.323-.647 0-3.558 2.91-5.175 6.145-5.821 10.026-.324.323.647.647.647 0Z" clip-rule="evenodd"></path><path fill="#000000" fill-rule="evenodd" d="M43.404 82.646c-2.588 3.558-9.056 6.468-12.937 7.762-.646.323-.323.97.324.97 5.821-.97 10.672-2.91 13.583-8.085.323-.647-.647-1.294-.97-.647Z" clip-rule="evenodd"></path><path fill="#000000" fill-rule="evenodd" d="M8.476 51.922c.647 0 .647-.97 0-.97-10.026-1.94-11.643 1.617 0 .97Z" clip-rule="evenodd"></path><path fill="#000000" fill-rule="evenodd" d="M12.68 51.598c2.91 1.94 3.234 7.115 3.881 10.35.323 1.293 4.528 21.02 5.821 26.195 0 .647.97.323.97-.323-1.617-8.732-5.174-29.43-7.114-33.311-.647-1.617-2.911-4.851-3.881-3.881.323.323.323.647.323.97Z" clip-rule="evenodd"></path><path fill="#000000" fill-rule="evenodd" d="M1.037 79.088c3.881.647 6.792 1.617 11.967 2.264 2.263.323 4.85.323 7.114.97.647.323.97-.647.324-.97-2.91-.97-13.907-3.234-19.405-2.91-.646-.324-.646.646 0 .646Z" clip-rule="evenodd"></path><path fill="#000000" fill-rule="evenodd" d="M1.037 91.053c7.439 1.294 3.881 1.617 21.022 1.94.647 0 .647-.97 0-.97-2.91-.323-9.056-.97-21.022-1.94-.646-.323-.646.647 0 .97Z" clip-rule="evenodd"></path></svg>