<svg xmlns="http://www.w3.org/2000/svg" fill="none" viewBox="0 0 48 48"><path stroke="#000000" stroke-linecap="round" stroke-linejoin="round" d="M15.61 37.63c.286-1.114.544-1.885 1.015-2.844.338-.688 1.18-.94 1.868-.598v0c.592.294.939.97.635 1.557a5.739 5.739 0 0 1-.534.818"></path><path stroke="#000000" stroke-linecap="round" stroke-linejoin="round" d="M20.813 38a5.19 5.19 0 0 0 .452-.597c.342-.531.21-1.24-.265-1.656v0c-.495-.431-1.26-.457-1.712.02a3.126 3.126 0 0 0-.6.89"></path><path stroke="#000000" stroke-linecap="round" stroke-linejoin="round" d="M22.688 39.438c.239-.314.39-.57.525-.878.2-.456.024-.983-.37-1.285v0c-.472-.362-1.148-.317-1.543.126-.176.198-.327.381-.519.63"></path><path stroke="#000000" stroke-linecap="round" stroke-linejoin="round" d="M22.688 39.406c.142-.184.239-.304.32-.409.34-.439.967-.555 1.393-.199v0c.302.252.414.67.253 1.028-.685 1.524-1.493 2.321-3.204 3.498-4.106.093-6.053-.605-8.821-3.342 0 0-.242-1.255-.016-2.98.16-1.225.812-1.928 1.543-1.877"></path><path stroke="#000000" stroke-linecap="round" stroke-linejoin="round" d="M12.563 39.654c0 2.185-3.683 5.972-4.654 6.583"></path><path stroke="#000000" stroke-linecap="round" stroke-linejoin="round" d="M21.438 43.328c-.353.658-1.53 2.753-1.78 2.905"></path><path stroke="#000000" stroke-linecap="round" stroke-linejoin="round" d="M12.172 29.578c-3.694 1.35-9.656 10.009-7.94 16.655"></path><path stroke="#000000" stroke-linecap="round" stroke-linejoin="round" d="M31.156 28.203c6.04 0 10.821 8.739 12.922 18.276"></path><path stroke="#000000" stroke-linejoin="round" d="M11.472 10.767c.198-.597.34-1.207.49-1.817.987-3.983 4.25-7.067 8.373-7.604 1.89-.246 3.523-.411 3.996-.321.465.088 1.936.727 3.634 1.51 3.873 1.789 6.11 5.839 5.762 10.044-.04.483-.086.962-.092 1.447-.072 5.84-.69 17.556-7.913 18.255-1.848.178-4.01.22-6.17-.111-2.16-.332-4.21-1.02-5.919-1.744-6.588-2.792-4.024-14.037-2.16-19.659Z"></path><path stroke="#000000" stroke-linecap="round" stroke-linejoin="round" d="M10.531 14.016c3.96.087 13.263-.757 15.889-4.538.84 1.523.59 5.382 1.772 5.908 1.182.525 2.823-3.873 2.823-3.873l2.391 7.315"></path><path stroke="#000000" stroke-linecap="round" stroke-linejoin="round" d="M33.281 20.219c1.858-.03 2.224 2.415 1.6 4.001l-.21.533c-.566 1.44-1.947 1.957-2.733 1.638"></path><path stroke="#000000" stroke-linecap="round" stroke-linejoin="round" d="M13.158 16.982c.717-.732 2.628-.1 5.09 1.017"></path><path stroke="#000000" stroke-linecap="round" stroke-linejoin="round" d="M27.875 19.25c-.416-.936-2.163-.938-4.86-.751"></path><path stroke="#000000" stroke-linecap="round" stroke-linejoin="round" d="M16.149 26.3a9.836 9.836 0 0 1 3.41-.08c1.2.175 2.302.547 3.244 1.056"></path><path stroke="#000000" stroke-linecap="round" stroke-linejoin="round" d="M22.659 26.276s-.042 1.43.751 1.925"></path><path stroke="#000000" stroke-linecap="round" stroke-linejoin="round" d="M16.23 25.54s.043 1.43-.751 1.926"></path><path stroke="#000000" stroke-linecap="round" stroke-linejoin="round" d="M19.815 29.269c-.237-.13-.803-.342-1.167-.162"></path><path stroke="#000000" stroke-linecap="round" stroke-linejoin="round" d="M17.271 22.956c.69-.984 1.893.154 2.396.722.8-.268 2.33-1.05 2.692.099"></path><path stroke="#000000" stroke-linecap="round" stroke-linejoin="round" d="M22.022 9.28c-.656 1.38-1.933 3.151-3.194 3.939"></path><path stroke="#000000" stroke-linecap="round" stroke-linejoin="round" d="M17.4 9.839c-.656 1.378-2.03 3.248-3.29 4.036"></path><path fill="#000000" fill-rule="evenodd" d="M24.312 19.049a1.194 1.194 0 1 0 0 2.388 1.194 1.194 0 0 0 0-2.388Z" clip-rule="evenodd"></path><path fill="#000000" fill-rule="evenodd" d="M16.216 18.116a1.194 1.194 0 1 0 0 2.389 1.194 1.194 0 0 0 0-2.389Z" clip-rule="evenodd"></path><path stroke="#000000" stroke-linecap="round" stroke-linejoin="round" d="M14.563 34.106c-.443 1.01-.28 2.843.937 3.769l1.423-3.769c-.512-1.06-1.84-1.189-2.36 0Z"></path></svg>